<svg xmlns="http://www.w3.org/2000/svg" xmlns:xlink="http://www.w3.org/1999/xlink" contentStyleType="text/css" data-diagram-type="CLASS" height="1990px" preserveAspectRatio="none" style="width:2909px;height:1990px;background:#FFFFFF;" version="1.1" viewBox="0 0 2909 1990" width="2909px" zoomAndPan="magnify"><defs/><g><!--cluster Model--><g id="cluster_Model"><path d="M8.5,6.602 L52.8298,6.602 A3.75,3.75 0 0 1 55.3298,9.102 L62.3298,31.6699 L2872.5,31.6699 A2.5,2.5 0 0 1 2875,34.1699 L2875,1981.042 A2.5,2.5 0 0 1 2872.5,1983.542 L8.5,1983.542 A2.5,2.5 0 0 1 6,1981.042 L6,9.102 A2.5,2.5 0 0 1 8.5,6.602 " fill="transparent" style="stroke:#000000;stroke-width:1.5;"/><line style="stroke:#000000;stroke-width:1.5;" x1="6" x2="62.3298" y1="31.6699" y2="31.6699"/><text fill="#000000" font-family="sans-serif" font-size="14" font-weight="bold" lengthAdjust="spacing" textLength="43.3298" x="10" y="23.5679">Model</text></g><!--cluster Components--><g id="cluster_Components"><path d="M32.5,52.602 L122.1476,52.602 A3.75,3.75 0 0 1 124.6476,55.102 L131.6476,77.6699 L1508.5,77.6699 A2.5,2.5 0 0 1 1511,80.1699 L1511,1957.042 A2.5,2.5 0 0 1 1508.5,1959.542 L32.5,1959.542 A2.5,2.5 0 0 1 30,1957.042 L30,55.102 A2.5,2.5 0 0 1 32.5,52.602 " fill="transparent" style="stroke:#000000;stroke-width:1.5;"/><line style="stroke:#000000;stroke-width:1.5;" x1="30" x2="131.6476" y1="77.6699" y2="77.6699"/><text fill="#000000" font-family="sans-serif" font-size="14" font-weight="bold" lengthAdjust="spacing" textLength="88.6476" x="34" y="69.5679">Components</text></g><!--cluster Board--><g id="cluster_Board"><path d="M1537.5,594.432 L1580.0518,594.432 A3.75,3.75 0 0 1 1582.5518,596.932 L1589.5518,619.4999 L2145.5,619.4999 A2.5,2.5 0 0 1 2148,621.9999 L2148,1381.232 A2.5,2.5 0 0 1 2145.5,1383.732 L1537.5,1383.732 A2.5,2.5 0 0 1 1535,1381.232 L1535,596.932 A2.5,2.5 0 0 1 1537.5,594.432 " fill="transparent" style="stroke:#000000;stroke-width:1.5;"/><line style="stroke:#000000;stroke-width:1.5;" x1="1535" x2="1589.5518" y1="619.4999" y2="619.4999"/><text fill="#000000" font-family="sans-serif" font-size="14" font-weight="bold" lengthAdjust="spacing" textLength="41.5518" x="1539" y="611.3979">Board</text></g><!--class Player--><g id="elem_Player"><rect codeLine="8" fill="#F1F1F1" height="121.3396" id="Player" rx="2.5" ry="2.5" style="stroke:#181818;stroke-width:0.5;" width="152.0835" x="2046.96" y="88.602"/><text fill="#000000" font-family="sans-serif" font-size="14" font-weight="bold" lengthAdjust="spacing" textLength="43.8618" x="2101.0708" y="108.5679">Player</text><line style="stroke:#181818;stroke-width:0.5;" x1="2047.96" x2="2198.0435" y1="117.6699" y2="117.6699"/><text fill="#000000" font-family="sans-serif" font-size="14" lengthAdjust="spacing" textLength="69.0897" x="2052.96" y="136.6358">credits: int</text><text fill="#000000" font-family="sans-serif" font-size="14" lengthAdjust="spacing" textLength="73.3317" x="2052.96" y="155.7038">crew: int[3]</text><text fill="#000000" font-family="sans-serif" font-size="14" lengthAdjust="spacing" textLength="79.8137" x="2052.96" y="174.7717">distance: int</text><text fill="#000000" font-family="sans-serif" font-size="14" lengthAdjust="spacing" textLength="140.0835" x="2052.96" y="193.8396">spaceship: SpaceShip</text><line style="stroke:#181818;stroke-width:0.5;" x1="2047.96" x2="2198.0435" y1="201.9416" y2="201.9416"/></g><!--class iCard--><g id="elem_iCard"><rect codeLine="109" fill="#F1F1F1" height="117.3396" id="iCard" rx="2.5" ry="2.5" style="stroke:#181818;stroke-width:0.5;" width="162.6254" x="2371.69" y="298.542"/><text fill="#000000" font-family="sans-serif" font-size="14" font-style="italic" font-weight="bold" lengthAdjust="spacing" textLength="35.2799" x="2435.3628" y="318.5079">iCard</text><line style="stroke:#181818;stroke-width:0.5;" x1="2372.69" x2="2533.3154" y1="327.6099" y2="327.6099"/><text fill="#000000" font-family="sans-serif" font-size="14" lengthAdjust="spacing" textLength="112.7136" x="2377.69" y="369.6438">+getTitle(): String</text><text fill="#000000" font-family="sans-serif" font-size="14" lengthAdjust="spacing" textLength="112.8956" x="2377.69" y="388.7117">+getText(): String</text><text fill="#000000" font-family="sans-serif" font-size="14" lengthAdjust="spacing" textLength="150.6254" x="2377.69" y="407.7796">+getEffect(): CardEffect</text><line style="stroke:#181818;stroke-width:1;" x1="2372.69" x2="2423.7638" y1="345.1439" y2="345.1439"/><line style="stroke:#181818;stroke-width:1;" x1="2372.69" x2="2423.7638" y1="347.1439" y2="347.1439"/><text fill="#000000" font-family="sans-serif" font-size="14" lengthAdjust="spacing" textLength="58.4778" x="2423.7638" y="350.0758">methods</text><line style="stroke:#181818;stroke-width:1;" x1="2482.2416" x2="2533.3154" y1="345.1439" y2="345.1439"/><line style="stroke:#181818;stroke-width:1;" x1="2482.2416" x2="2533.3154" y1="347.1439" y2="347.1439"/></g><!--class Card--><g id="elem_Card"><rect codeLine="116" fill="#F1F1F1" height="174.5433" id="Card" rx="2.5" ry="2.5" style="stroke:#181818;stroke-width:0.5;" width="162.6254" x="2659.69" y="603.822"/><text fill="#000000" font-family="sans-serif" font-size="14" font-weight="bold" lengthAdjust="spacing" textLength="32.4799" x="2724.7628" y="623.7879">Card</text><line style="stroke:#181818;stroke-width:0.5;" x1="2660.69" x2="2821.3154" y1="632.8899" y2="632.8899"/><text fill="#000000" font-family="sans-serif" font-size="14" lengthAdjust="spacing" textLength="76.5237" x="2665.69" y="651.8558">-title: String</text><text fill="#000000" font-family="sans-serif" font-size="14" lengthAdjust="spacing" textLength="76.7057" x="2665.69" y="670.9238">-text: String</text><text fill="#000000" font-family="sans-serif" font-size="14" lengthAdjust="spacing" textLength="117.2775" x="2665.69" y="689.9917">-effect: CardEffect</text><text fill="#000000" font-family="sans-serif" font-size="14" lengthAdjust="spacing" textLength="112.7136" x="2665.69" y="732.1275">+getTitle(): String</text><text fill="#000000" font-family="sans-serif" font-size="14" lengthAdjust="spacing" textLength="112.8956" x="2665.69" y="751.1954">+getText(): String</text><text fill="#000000" font-family="sans-serif" font-size="14" lengthAdjust="spacing" textLength="150.6254" x="2665.69" y="770.2633">+getEffect(): CardEffect</text><line style="stroke:#181818;stroke-width:1;" x1="2660.69" x2="2711.7638" y1="707.6276" y2="707.6276"/><line style="stroke:#181818;stroke-width:1;" x1="2660.69" x2="2711.7638" y1="709.6276" y2="709.6276"/><text fill="#000000" font-family="sans-serif" font-size="14" lengthAdjust="spacing" textLength="58.4778" x="2711.7638" y="712.5596">methods</text><line style="stroke:#181818;stroke-width:1;" x1="2770.2416" x2="2821.3154" y1="707.6276" y2="707.6276"/><line style="stroke:#181818;stroke-width:1;" x1="2770.2416" x2="2821.3154" y1="709.6276" y2="709.6276"/></g><!--class iCardEffect--><g id="elem_iCardEffect"><rect codeLine="126" fill="#F1F1F1" height="79.2038" id="iCardEffect" rx="2.5" ry="2.5" style="stroke:#181818;stroke-width:0.5;" width="289.0309" x="2569.48" y="317.612"/><text fill="#000000" font-family="sans-serif" font-size="14" font-style="italic" font-weight="bold" lengthAdjust="spacing" textLength="73.6677" x="2677.1616" y="337.5779">iCardEffect</text><line style="stroke:#181818;stroke-width:0.5;" x1="2570.48" x2="2857.5109" y1="346.6799" y2="346.6799"/><text fill="#000000" font-family="sans-serif" font-size="14" lengthAdjust="spacing" textLength="277.0309" x="2575.48" y="388.7138">apply(iSpaceShip ship): function(blablabla)</text><line style="stroke:#181818;stroke-width:1;" x1="2570.48" x2="2684.7566" y1="364.2139" y2="364.2139"/><line style="stroke:#181818;stroke-width:1;" x1="2570.48" x2="2684.7566" y1="366.2139" y2="366.2139"/><text fill="#000000" font-family="sans-serif" font-size="14" lengthAdjust="spacing" textLength="58.4778" x="2684.7566" y="369.1458">methods</text><line style="stroke:#181818;stroke-width:1;" x1="2743.2344" x2="2857.5109" y1="364.2139" y2="364.2139"/><line style="stroke:#181818;stroke-width:1;" x1="2743.2344" x2="2857.5109" y1="366.2139" y2="366.2139"/></g><!--class CardEffect--><g id="elem_CardEffect"><rect codeLine="132" fill="#F1F1F1" height="136.4075" id="CardEffect" rx="2.5" ry="2.5" style="stroke:#181818;stroke-width:0.5;" width="363.7767" x="2495.11" y="976.772"/><text fill="#000000" font-family="sans-serif" font-size="14" font-weight="bold" lengthAdjust="spacing" textLength="72.8137" x="2640.5915" y="996.7379">CardEffect</text><line style="stroke:#181818;stroke-width:0.5;" x1="2496.11" x2="2857.8867" y1="1005.8399" y2="1005.8399"/><text fill="#000000" font-family="sans-serif" font-size="14" lengthAdjust="spacing" textLength="276.849" x="2501.11" y="1024.8058">test: Functional.Predicate(iSpaceShip ship)</text><text fill="#000000" font-family="sans-serif" font-size="14" lengthAdjust="spacing" textLength="295.6789" x="2501.11" y="1043.8738">on_satisfy: Functional.Function(Player player)</text><text fill="#000000" font-family="sans-serif" font-size="14" lengthAdjust="spacing" textLength="312.9828" x="2501.11" y="1062.9417">on_unsatisfy: Functional.Function(Player player)</text><text fill="#000000" font-family="sans-serif" font-size="14" lengthAdjust="spacing" textLength="351.7767" x="2501.11" y="1105.0775">apply(iSpaceShip ship): Functional.Function(blablabla)</text><line style="stroke:#181818;stroke-width:1;" x1="2496.11" x2="2647.7594" y1="1080.5776" y2="1080.5776"/><line style="stroke:#181818;stroke-width:1;" x1="2496.11" x2="2647.7594" y1="1082.5776" y2="1082.5776"/><text fill="#000000" font-family="sans-serif" font-size="14" lengthAdjust="spacing" textLength="58.4778" x="2647.7594" y="1085.5096">methods</text><line style="stroke:#181818;stroke-width:1;" x1="2706.2372" x2="2857.8867" y1="1080.5776" y2="1080.5776"/><line style="stroke:#181818;stroke-width:1;" x1="2706.2372" x2="2857.8867" y1="1082.5776" y2="1082.5776"/></g><!--class iSpaceShip--><g id="elem_iSpaceShip"><rect codeLine="158" fill="#F1F1F1" height="174.5433" id="iSpaceShip" rx="2.5" ry="2.5" style="stroke:#181818;stroke-width:0.5;" width="427.9105" x="1909.04" y="269.942"/><text fill="#000000" font-family="sans-serif" font-size="14" font-style="italic" font-weight="bold" lengthAdjust="spacing" textLength="71.1897" x="2087.4004" y="289.9079">iSpaceShip</text><line style="stroke:#181818;stroke-width:0.5;" x1="1910.04" x2="2335.9505" y1="299.0099" y2="299.0099"/><text fill="#000000" font-family="sans-serif" font-size="14" lengthAdjust="spacing" textLength="87.9616" x="1915.04" y="341.0438">+verify(): void</text><text fill="#000000" font-family="sans-serif" font-size="14" lengthAdjust="spacing" textLength="415.9105" x="1915.04" y="360.1117">+add_component(Starship Component comp, int position): void</text><text fill="#000000" font-family="sans-serif" font-size="14" lengthAdjust="spacing" textLength="257.823" x="1915.04" y="379.1796">+remove_component(int position): void</text><text fill="#000000" font-family="sans-serif" font-size="14" lengthAdjust="spacing" textLength="89.3196" x="1915.04" y="398.2475">+verify(): bool</text><text fill="#000000" font-family="sans-serif" font-size="14" lengthAdjust="spacing" textLength="174.8313" x="1915.04" y="417.3154">+turnOn(int position): bool</text><text fill="#000000" font-family="sans-serif" font-size="14" lengthAdjust="spacing" textLength="126.5595" x="1915.04" y="436.3833">+resetPower(): void</text><line style="stroke:#181818;stroke-width:1;" x1="1910.04" x2="2093.7564" y1="316.5439" y2="316.5439"/><line style="stroke:#181818;stroke-width:1;" x1="1910.04" x2="2093.7564" y1="318.5439" y2="318.5439"/><text fill="#000000" font-family="sans-serif" font-size="14" lengthAdjust="spacing" textLength="58.4778" x="2093.7564" y="321.4758">methods</text><line style="stroke:#181818;stroke-width:1;" x1="2152.2342" x2="2335.9505" y1="316.5439" y2="316.5439"/><line style="stroke:#181818;stroke-width:1;" x1="2152.2342" x2="2335.9505" y1="318.5439" y2="318.5439"/></g><!--class SpaceShip--><g id="elem_SpaceShip"><rect codeLine="169" fill="#F1F1F1" height="373.2225" id="SpaceShip" rx="2.5" ry="2.5" style="stroke:#181818;stroke-width:0.5;" width="423.8226" x="2164.09" y="504.482"/><text fill="#000000" font-family="sans-serif" font-size="14" font-weight="bold" lengthAdjust="spacing" textLength="70.3777" x="2340.8124" y="524.4479">SpaceShip</text><line style="stroke:#181818;stroke-width:0.5;" x1="2165.09" x2="2586.9126" y1="533.5499" y2="533.5499"/><text fill="#000000" font-family="sans-serif" font-size="14" lengthAdjust="spacing" textLength="248.0791" x="2170.09" y="552.5158">-component: Starship Component[35]</text><text fill="#000000" font-family="sans-serif" font-size="14" lengthAdjust="spacing" textLength="107.2396" x="2170.09" y="571.5838">-total_power: int</text><text fill="#000000" font-family="sans-serif" font-size="14" lengthAdjust="spacing" textLength="148.5394" x="2170.09" y="590.6517">-total_firing_power: int</text><text fill="#000000" font-family="sans-serif" font-size="14" lengthAdjust="spacing" textLength="158.7734" x="2170.09" y="609.7196">-total_engine_power: int</text><text fill="#000000" font-family="sans-serif" font-size="14" lengthAdjust="spacing" textLength="87.6817" x="2170.09" y="628.7875">-batteries: int</text><text fill="#000000" font-family="sans-serif" font-size="14" lengthAdjust="spacing" textLength="87.9616" x="2170.09" y="670.9233">+verify(): void</text><text fill="#000000" font-family="sans-serif" font-size="14" lengthAdjust="spacing" textLength="411.8226" x="2170.09" y="689.9913">+addComponent(Starship Component comp, int position): void</text><text fill="#000000" font-family="sans-serif" font-size="14" lengthAdjust="spacing" textLength="253.735" x="2170.09" y="709.0592">+removeComponent(int position): void</text><text fill="#000000" font-family="sans-serif" font-size="14" lengthAdjust="spacing" textLength="89.3196" x="2170.09" y="728.1271">+verify(): bool</text><text fill="#000000" font-family="sans-serif" font-size="14" lengthAdjust="spacing" textLength="174.8313" x="2170.09" y="747.195">+turnOn(int position): bool</text><text fill="#000000" font-family="sans-serif" font-size="14" lengthAdjust="spacing" textLength="126.5595" x="2170.09" y="766.2629">+resetPower(): void</text><text fill="#000000" font-family="sans-serif" font-size="14" lengthAdjust="spacing" textLength="104.2996" x="2170.09" y="785.3308">+getPower(): int</text><text fill="#000000" font-family="sans-serif" font-size="14" lengthAdjust="spacing" textLength="149.5054" x="2170.09" y="804.3988">+getEnginePower(): int</text><text fill="#000000" font-family="sans-serif" font-size="14" lengthAdjust="spacing" textLength="103.3756" x="2170.09" y="823.4667">+getSpeed(): int</text><line style="stroke:#181818;stroke-width:1;" x1="2165.09" x2="2346.7624" y1="646.4234" y2="646.4234"/><line style="stroke:#181818;stroke-width:1;" x1="2165.09" x2="2346.7624" y1="648.4234" y2="648.4234"/><text fill="#000000" font-family="sans-serif" font-size="14" lengthAdjust="spacing" textLength="58.4778" x="2346.7624" y="651.3554">methods</text><line style="stroke:#181818;stroke-width:1;" x1="2405.2402" x2="2586.9126" y1="646.4234" y2="646.4234"/><line style="stroke:#181818;stroke-width:1;" x1="2405.2402" x2="2586.9126" y1="648.4234" y2="648.4234"/><line style="stroke:#181818;stroke-width:1;" x1="2165.09" x2="2586.9126" y1="831.5687" y2="831.5687"/><text fill="#000000" font-family="sans-serif" font-size="14" lengthAdjust="spacing" textLength="134.2455" x="2170.09" y="850.5346">-evaluateSpeed(): int</text><text fill="#000000" font-family="sans-serif" font-size="14" lengthAdjust="spacing" textLength="135.1695" x="2170.09" y="869.6025">-evaluatePower(): int</text></g><!--class iSC--><g id="elem_iSC"><rect codeLine="20" fill="#F1F1F1" height="117.3396" id="iSC" rx="2.5" ry="2.5" style="stroke:#181818;stroke-width:0.5;" width="289.9969" x="736" y="90.602"/><text fill="#000000" font-family="sans-serif" font-size="14" font-style="italic" font-weight="bold" lengthAdjust="spacing" textLength="135.0295" x="813.4837" y="110.5679">Starship Component</text><line style="stroke:#181818;stroke-width:0.5;" x1="737" x2="1024.9969" y1="119.6699" y2="119.6699"/><text fill="#000000" font-family="sans-serif" font-size="14" lengthAdjust="spacing" textLength="241.4431" x="742" y="161.7038">+getConnectors() : ConnectorType[4]</text><text fill="#000000" font-family="sans-serif" font-size="14" lengthAdjust="spacing" textLength="189.6012" x="742" y="180.7717">+getType() : ComponentType</text><text fill="#000000" font-family="sans-serif" font-size="14" lengthAdjust="spacing" textLength="277.9969" x="742" y="199.8396">+verify(iSpaceShip state, int position): bool</text><line style="stroke:#181818;stroke-width:1;" x1="737" x2="851.7596" y1="137.2039" y2="137.2039"/><line style="stroke:#181818;stroke-width:1;" x1="737" x2="851.7596" y1="139.2039" y2="139.2039"/><text fill="#000000" font-family="sans-serif" font-size="14" lengthAdjust="spacing" textLength="58.4778" x="851.7596" y="142.1358">methods</text><line style="stroke:#181818;stroke-width:1;" x1="910.2374" x2="1024.9969" y1="137.2039" y2="137.2039"/><line style="stroke:#181818;stroke-width:1;" x1="910.2374" x2="1024.9969" y1="139.2039" y2="139.2039"/></g><!--class SC--><g id="elem_SC"><rect codeLine="27" fill="#F1F1F1" height="174.5433" id="SC" rx="2.5" ry="2.5" style="stroke:#181818;stroke-width:0.5;" width="289.9969" x="736" y="957.712"/><text fill="#000000" font-family="sans-serif" font-size="14" font-style="italic" font-weight="bold" lengthAdjust="spacing" textLength="111.4676" x="825.2647" y="977.6779">Base Component</text><line style="stroke:#181818;stroke-width:0.5;" x1="737" x2="1024.9969" y1="986.7799" y2="986.7799"/><text fill="#000000" font-family="sans-serif" font-size="14" lengthAdjust="spacing" textLength="188.6353" x="742" y="1005.7458">-connectors : ConnectorType</text><text fill="#000000" font-family="sans-serif" font-size="14" lengthAdjust="spacing" textLength="153.4114" x="742" y="1024.8138">-type : ComponentType</text><text fill="#000000" font-family="sans-serif" font-size="14" lengthAdjust="spacing" textLength="198.4633" x="742" y="1043.8817">-rotation: ComponentRotation</text><text fill="#000000" font-family="sans-serif" font-size="14" lengthAdjust="spacing" textLength="241.4431" x="742" y="1086.0175">+getConnectors() : ConnectorType[4]</text><text fill="#000000" font-family="sans-serif" font-size="14" lengthAdjust="spacing" textLength="189.6012" x="742" y="1105.0854">+getType() : ComponentType</text><text fill="#000000" font-family="sans-serif" font-size="14" lengthAdjust="spacing" textLength="277.9969" x="742" y="1124.1533">+verify(iSpaceShip state, int position): bool</text><line style="stroke:#181818;stroke-width:1;" x1="737" x2="851.7596" y1="1061.5176" y2="1061.5176"/><line style="stroke:#181818;stroke-width:1;" x1="737" x2="851.7596" y1="1063.5176" y2="1063.5176"/><text fill="#000000" font-family="sans-serif" font-size="14" lengthAdjust="spacing" textLength="58.4778" x="851.7596" y="1066.4496">methods</text><line style="stroke:#181818;stroke-width:1;" x1="910.2374" x2="1024.9969" y1="1061.5176" y2="1061.5176"/><line style="stroke:#181818;stroke-width:1;" x1="910.2374" x2="1024.9969" y1="1063.5176" y2="1063.5176"/></g><polygon fill="transparent" points="868.9896,1132.2553,873.1979,1153.0228,859.3286,1151.1144" style="stroke:#181818;stroke-width:1;"/><line style="stroke:#181818;stroke-width:1;" x1="866.2633" x2="866" y1="1152.0686" y2="1153.982"/><line style="stroke:#181818;stroke-width:1;" x1="880.9997" x2="881" y1="957.712" y2="937.532"/><line style="stroke:#181818;stroke-width:1;" x1="1025.9969" x2="1052.0072" y1="1081.747" y2="1088.3417"/><!--class CC--><g id="elem_CC"><rect codeLine="37" fill="#F1F1F1" height="117.3396" id="CC" rx="2.5" ry="2.5" style="stroke:#181818;stroke-width:0.5;" width="186.4673" x="45.77" y="1507.792"/><text fill="#000000" font-family="sans-serif" font-size="14" font-weight="bold" lengthAdjust="spacing" textLength="124.7675" x="76.6199" y="1527.7579">Cabin Component</text><line style="stroke:#181818;stroke-width:0.5;" x1="46.77" x2="231.2373" y1="1536.8599" y2="1536.8599"/><text fill="#000000" font-family="sans-serif" font-size="14" lengthAdjust="spacing" textLength="119.5175" x="51.77" y="1555.8258">-crew_number: int</text><text fill="#000000" font-family="sans-serif" font-size="14" lengthAdjust="spacing" textLength="96.2076" x="51.77" y="1597.9617">+getCrew(): int</text><text fill="#000000" font-family="sans-serif" font-size="14" lengthAdjust="spacing" textLength="174.4673" x="51.77" y="1617.0296">+getCrewType(): AlienType</text><line style="stroke:#181818;stroke-width:1;" x1="46.77" x2="109.7648" y1="1573.4618" y2="1573.4618"/><line style="stroke:#181818;stroke-width:1;" x1="46.77" x2="109.7648" y1="1575.4618" y2="1575.4618"/><text fill="#000000" font-family="sans-serif" font-size="14" lengthAdjust="spacing" textLength="58.4778" x="109.7648" y="1578.3938">methods</text><line style="stroke:#181818;stroke-width:1;" x1="168.2425" x2="231.2373" y1="1573.4618" y2="1573.4618"/><line style="stroke:#181818;stroke-width:1;" x1="168.2425" x2="231.2373" y1="1575.4618" y2="1575.4618"/></g><!--class ACC--><g id="elem_ACC"><rect codeLine="44" fill="#F1F1F1" height="117.3396" id="ACC" rx="2.5" ry="2.5" style="stroke:#181818;stroke-width:0.5;" width="185.6553" x="46.17" y="1826.202"/><text fill="#000000" font-family="sans-serif" font-size="14" font-weight="bold" lengthAdjust="spacing" textLength="163.9113" x="57.042" y="1846.1679">Alien Cabin Component</text><line style="stroke:#181818;stroke-width:0.5;" x1="47.17" x2="230.8253" y1="1855.2699" y2="1855.2699"/><text fill="#000000" font-family="sans-serif" font-size="14" lengthAdjust="spacing" textLength="142.5894" x="52.17" y="1874.2358">-alien_type: AlienType</text><text fill="#000000" font-family="sans-serif" font-size="14" lengthAdjust="spacing" textLength="173.6553" x="52.17" y="1916.3717">+getAlienType(): AlienType</text><text fill="#000000" font-family="sans-serif" font-size="14" lengthAdjust="spacing" textLength="96.2076" x="52.17" y="1935.4396">+getCrew(): int</text><line style="stroke:#181818;stroke-width:1;" x1="47.17" x2="109.7588" y1="1891.8718" y2="1891.8718"/><line style="stroke:#181818;stroke-width:1;" x1="47.17" x2="109.7588" y1="1893.8718" y2="1893.8718"/><text fill="#000000" font-family="sans-serif" font-size="14" lengthAdjust="spacing" textLength="58.4778" x="109.7588" y="1896.8038">methods</text><line style="stroke:#181818;stroke-width:1;" x1="168.2365" x2="230.8253" y1="1891.8718" y2="1891.8718"/><line style="stroke:#181818;stroke-width:1;" x1="168.2365" x2="230.8253" y1="1893.8718" y2="1893.8718"/></g><!--class EC--><g id="elem_EC"><rect codeLine="51" fill="#F1F1F1" height="155.4754" id="EC" rx="2.5" ry="2.5" style="stroke:#181818;stroke-width:0.5;" width="166.9654" x="267.52" y="1488.732"/><text fill="#000000" font-family="sans-serif" font-size="14" font-weight="bold" lengthAdjust="spacing" textLength="132.6915" x="284.657" y="1508.6979">Engine Component</text><line style="stroke:#181818;stroke-width:0.5;" x1="268.52" x2="433.4854" y1="1517.7999" y2="1517.7999"/><text fill="#000000" font-family="sans-serif" font-size="14" lengthAdjust="spacing" textLength="105.5456" x="273.52" y="1536.7658">-max_power: int</text><text fill="#000000" font-family="sans-serif" font-size="14" lengthAdjust="spacing" textLength="123.7315" x="273.52" y="1555.8338">-powered: boolean</text><text fill="#000000" font-family="sans-serif" font-size="14" lengthAdjust="spacing" textLength="125.7335" x="273.52" y="1574.9017">-current_power: int</text><text fill="#000000" font-family="sans-serif" font-size="14" lengthAdjust="spacing" textLength="99.3296" x="273.52" y="1617.0375">+turnOn(): void</text><text fill="#000000" font-family="sans-serif" font-size="14" lengthAdjust="spacing" textLength="154.9654" x="273.52" y="1636.1054">+getCurrentPower(): int</text><line style="stroke:#181818;stroke-width:1;" x1="268.52" x2="321.7638" y1="1592.5376" y2="1592.5376"/><line style="stroke:#181818;stroke-width:1;" x1="268.52" x2="321.7638" y1="1594.5376" y2="1594.5376"/><text fill="#000000" font-family="sans-serif" font-size="14" lengthAdjust="spacing" textLength="58.4778" x="321.7638" y="1597.4696">methods</text><line style="stroke:#181818;stroke-width:1;" x1="380.2416" x2="433.4854" y1="1592.5376" y2="1592.5376"/><line style="stroke:#181818;stroke-width:1;" x1="380.2416" x2="433.4854" y1="1594.5376" y2="1594.5376"/></g><!--class ASC--><g id="elem_ASC"><rect codeLine="60" fill="#F1F1F1" height="98.2717" id="ASC" rx="2.5" ry="2.5" style="stroke:#181818;stroke-width:0.5;" width="176.2813" x="469.86" y="1517.332"/><text fill="#000000" font-family="sans-serif" font-size="14" font-weight="bold" lengthAdjust="spacing" textLength="170.2813" x="472.86" y="1537.2979">Life Support Component</text><line style="stroke:#181818;stroke-width:0.5;" x1="470.86" x2="645.1413" y1="1546.3999" y2="1546.3999"/><text fill="#000000" font-family="sans-serif" font-size="14" lengthAdjust="spacing" textLength="104.7476" x="475.86" y="1565.3658">-type: AlienType</text><text fill="#000000" font-family="sans-serif" font-size="14" lengthAdjust="spacing" textLength="140.9374" x="475.86" y="1607.5017">+getType(): AlienType</text><line style="stroke:#181818;stroke-width:1;" x1="470.86" x2="528.7618" y1="1583.0018" y2="1583.0018"/><line style="stroke:#181818;stroke-width:1;" x1="470.86" x2="528.7618" y1="1585.0018" y2="1585.0018"/><text fill="#000000" font-family="sans-serif" font-size="14" lengthAdjust="spacing" textLength="58.4778" x="528.7618" y="1587.9338">methods</text><line style="stroke:#181818;stroke-width:1;" x1="587.2396" x2="645.1413" y1="1583.0018" y2="1583.0018"/><line style="stroke:#181818;stroke-width:1;" x1="587.2396" x2="645.1413" y1="1585.0018" y2="1585.0018"/></g><!--class CNC--><g id="elem_CNC"><rect codeLine="66" fill="#F1F1F1" height="155.4754" id="CNC" rx="2.5" ry="2.5" style="stroke:#181818;stroke-width:0.5;" width="166.9654" x="681.52" y="1488.732"/><text fill="#000000" font-family="sans-serif" font-size="14" font-weight="bold" lengthAdjust="spacing" textLength="138.6834" x="695.661" y="1508.6979">Cannon Component</text><line style="stroke:#181818;stroke-width:0.5;" x1="682.52" x2="847.4854" y1="1517.7999" y2="1517.7999"/><text fill="#000000" font-family="sans-serif" font-size="14" lengthAdjust="spacing" textLength="105.5456" x="687.52" y="1536.7658">-max_power: int</text><text fill="#000000" font-family="sans-serif" font-size="14" lengthAdjust="spacing" textLength="123.7315" x="687.52" y="1555.8338">-powered: boolean</text><text fill="#000000" font-family="sans-serif" font-size="14" lengthAdjust="spacing" textLength="125.7335" x="687.52" y="1574.9017">-current_power: int</text><text fill="#000000" font-family="sans-serif" font-size="14" lengthAdjust="spacing" textLength="99.3296" x="687.52" y="1617.0375">+turnOn(): void</text><text fill="#000000" font-family="sans-serif" font-size="14" lengthAdjust="spacing" textLength="154.9654" x="687.52" y="1636.1054">+getCurrentPower(): int</text><line style="stroke:#181818;stroke-width:1;" x1="682.52" x2="735.7638" y1="1592.5376" y2="1592.5376"/><line style="stroke:#181818;stroke-width:1;" x1="682.52" x2="735.7638" y1="1594.5376" y2="1594.5376"/><text fill="#000000" font-family="sans-serif" font-size="14" lengthAdjust="spacing" textLength="58.4778" x="735.7638" y="1597.4696">methods</text><line style="stroke:#181818;stroke-width:1;" x1="794.2416" x2="847.4854" y1="1592.5376" y2="1592.5376"/><line style="stroke:#181818;stroke-width:1;" x1="794.2416" x2="847.4854" y1="1594.5376" y2="1594.5376"/></g><!--class STC--><g id="elem_STC"><rect codeLine="75" fill="#F1F1F1" height="155.4754" id="STC" rx="2.5" ry="2.5" style="stroke:#181818;stroke-width:0.5;" width="227.2912" x="883.35" y="1488.732"/><text fill="#000000" font-family="sans-serif" font-size="14" font-weight="bold" lengthAdjust="spacing" textLength="139.6495" x="927.1708" y="1508.6979">Storage Component</text><line style="stroke:#181818;stroke-width:0.5;" x1="884.35" x2="1109.6412" y1="1517.7999" y2="1517.7999"/><text fill="#000000" font-family="sans-serif" font-size="14" lengthAdjust="spacing" textLength="117.3475" x="889.35" y="1536.7658">-max_capacity: int</text><text fill="#000000" font-family="sans-serif" font-size="14" lengthAdjust="spacing" textLength="184.7713" x="889.35" y="1555.8338">-shipments: ShipmentType[]</text><text fill="#000000" font-family="sans-serif" font-size="14" lengthAdjust="spacing" textLength="215.2912" x="889.35" y="1597.9696">+putIn(ShipmentType item): void</text><text fill="#000000" font-family="sans-serif" font-size="14" lengthAdjust="spacing" textLength="208.5852" x="889.35" y="1617.0375">+getContents(): ShipmentType[]</text><text fill="#000000" font-family="sans-serif" font-size="14" lengthAdjust="spacing" textLength="118.3695" x="889.35" y="1636.1054">+getCapacity(): int</text><line style="stroke:#181818;stroke-width:1;" x1="884.35" x2="967.7567" y1="1573.4697" y2="1573.4697"/><line style="stroke:#181818;stroke-width:1;" x1="884.35" x2="967.7567" y1="1575.4697" y2="1575.4697"/><text fill="#000000" font-family="sans-serif" font-size="14" lengthAdjust="spacing" textLength="58.4778" x="967.7567" y="1578.4017">methods</text><line style="stroke:#181818;stroke-width:1;" x1="1026.2345" x2="1109.6412" y1="1573.4697" y2="1573.4697"/><line style="stroke:#181818;stroke-width:1;" x1="1026.2345" x2="1109.6412" y1="1575.4697" y2="1575.4697"/></g><!--class BC--><g id="elem_BC"><rect codeLine="84" fill="#F1F1F1" height="98.2717" id="BC" rx="2.5" ry="2.5" style="stroke:#181818;stroke-width:0.5;" width="143.7175" x="1146.14" y="1517.332"/><text fill="#000000" font-family="sans-serif" font-size="14" font-weight="bold" lengthAdjust="spacing" textLength="137.7175" x="1149.14" y="1537.2979">Battery Component</text><line style="stroke:#181818;stroke-width:0.5;" x1="1147.14" x2="1288.8575" y1="1546.3999" y2="1546.3999"/><text fill="#000000" font-family="sans-serif" font-size="14" lengthAdjust="spacing" textLength="117.3475" x="1152.14" y="1565.3658">-max_capacity: int</text><text fill="#000000" font-family="sans-serif" font-size="14" lengthAdjust="spacing" textLength="121.6315" x="1152.14" y="1607.5017">+getBatteries(): int</text><line style="stroke:#181818;stroke-width:1;" x1="1147.14" x2="1188.7598" y1="1583.0018" y2="1583.0018"/><line style="stroke:#181818;stroke-width:1;" x1="1147.14" x2="1188.7598" y1="1585.0018" y2="1585.0018"/><text fill="#000000" font-family="sans-serif" font-size="14" lengthAdjust="spacing" textLength="58.4778" x="1188.7598" y="1587.9338">methods</text><line style="stroke:#181818;stroke-width:1;" x1="1247.2376" x2="1288.8575" y1="1583.0018" y2="1583.0018"/><line style="stroke:#181818;stroke-width:1;" x1="1247.2376" x2="1288.8575" y1="1585.0018" y2="1585.0018"/></g><!--class SHC--><g id="elem_SHC"><rect codeLine="90" fill="#F1F1F1" height="98.2717" id="SHC" rx="2.5" ry="2.5" style="stroke:#181818;stroke-width:0.5;" width="169.4014" x="1325.3" y="1517.332"/><text fill="#000000" font-family="sans-serif" font-size="14" font-weight="bold" lengthAdjust="spacing" textLength="127.6375" x="1346.1819" y="1537.2979">Shield Component</text><line style="stroke:#181818;stroke-width:0.5;" x1="1326.3" x2="1493.7014" y1="1546.3999" y2="1546.3999"/><text fill="#000000" font-family="sans-serif" font-size="14" lengthAdjust="spacing" textLength="157.4014" x="1331.3" y="1565.3658">-shield_type: ShieldType</text><text fill="#000000" font-family="sans-serif" font-size="14" lengthAdjust="spacing" textLength="156.9254" x="1331.3" y="1607.5017">+getShield(): ShieldType</text><line style="stroke:#181818;stroke-width:1;" x1="1326.3" x2="1380.7618" y1="1583.0018" y2="1583.0018"/><line style="stroke:#181818;stroke-width:1;" x1="1326.3" x2="1380.7618" y1="1585.0018" y2="1585.0018"/><text fill="#000000" font-family="sans-serif" font-size="14" lengthAdjust="spacing" textLength="58.4778" x="1380.7618" y="1587.9338">methods</text><line style="stroke:#181818;stroke-width:1;" x1="1439.2396" x2="1493.7014" y1="1583.0018" y2="1583.0018"/><line style="stroke:#181818;stroke-width:1;" x1="1439.2396" x2="1493.7014" y1="1585.0018" y2="1585.0018"/></g><!--class iCards--><g id="elem_iCards"><rect codeLine="98" fill="#F1F1F1" height="79.2038" id="iCards" rx="2.5" ry="2.5" style="stroke:#181818;stroke-width:0.5;" width="126.0856" x="1991.96" y="651.492"/><text fill="#000000" font-family="sans-serif" font-size="14" font-style="italic" font-weight="bold" lengthAdjust="spacing" textLength="41.9298" x="2034.0379" y="671.4579">iCards</text><line style="stroke:#181818;stroke-width:0.5;" x1="1992.96" x2="2117.0456" y1="680.5599" y2="680.5599"/><text fill="#000000" font-family="sans-serif" font-size="14" lengthAdjust="spacing" textLength="114.0856" x="1997.96" y="722.5938">+pullCard(): iCard</text><line style="stroke:#181818;stroke-width:1;" x1="1992.96" x2="2025.7639" y1="698.0939" y2="698.0939"/><line style="stroke:#181818;stroke-width:1;" x1="1992.96" x2="2025.7639" y1="700.0939" y2="700.0939"/><text fill="#000000" font-family="sans-serif" font-size="14" lengthAdjust="spacing" textLength="58.4778" x="2025.7639" y="703.0258">methods</text><line style="stroke:#181818;stroke-width:1;" x1="2084.2417" x2="2117.0456" y1="698.0939" y2="698.0939"/><line style="stroke:#181818;stroke-width:1;" x1="2084.2417" x2="2117.0456" y1="700.0939" y2="700.0939"/></g><!--class Cards--><g id="elem_Cards"><rect codeLine="103" fill="#F1F1F1" height="98.2717" id="Cards" rx="2.5" ry="2.5" style="stroke:#181818;stroke-width:0.5;" width="154.3234" x="1977.84" y="1240.852"/><text fill="#000000" font-family="sans-serif" font-size="14" font-weight="bold" lengthAdjust="spacing" textLength="39.5078" x="2035.2478" y="1260.8179">Cards</text><line style="stroke:#181818;stroke-width:0.5;" x1="1978.84" x2="2131.1634" y1="1269.9199" y2="1269.9199"/><text fill="#000000" font-family="sans-serif" font-size="14" lengthAdjust="spacing" textLength="142.3234" x="1983.84" y="1288.8858">-cards: Queue&lt;iCard&gt;</text><text fill="#000000" font-family="sans-serif" font-size="14" lengthAdjust="spacing" textLength="114.0856" x="1983.84" y="1331.0217">+pullCard(): iCard</text><line style="stroke:#181818;stroke-width:1;" x1="1978.84" x2="2025.7628" y1="1306.5218" y2="1306.5218"/><line style="stroke:#181818;stroke-width:1;" x1="1978.84" x2="2025.7628" y1="1308.5218" y2="1308.5218"/><text fill="#000000" font-family="sans-serif" font-size="14" lengthAdjust="spacing" textLength="58.4778" x="2025.7628" y="1311.4538">methods</text><line style="stroke:#181818;stroke-width:1;" x1="2084.2406" x2="2131.1634" y1="1306.5218" y2="1306.5218"/><line style="stroke:#181818;stroke-width:1;" x1="2084.2406" x2="2131.1634" y1="1308.5218" y2="1308.5218"/></g><!--class iCommonBoard--><g id="elem_iCommonBoard"><rect codeLine="142" fill="#F1F1F1" height="117.3396" id="iCommonBoard" rx="2.5" ry="2.5" style="stroke:#181818;stroke-width:0.5;" width="336.0708" x="1578.96" y="632.432"/><text fill="#000000" font-family="sans-serif" font-size="14" font-style="italic" font-weight="bold" lengthAdjust="spacing" textLength="102.3256" x="1695.8326" y="652.3979">iCommonBoard</text><line style="stroke:#181818;stroke-width:0.5;" x1="1579.96" x2="1914.0308" y1="661.4999" y2="661.4999"/><text fill="#000000" font-family="sans-serif" font-size="14" lengthAdjust="spacing" textLength="261.365" x="1584.96" y="703.5338">+pullComponent(): Starship Component</text><text fill="#000000" font-family="sans-serif" font-size="14" lengthAdjust="spacing" textLength="324.0708" x="1584.96" y="722.6017">+discardComponent(Starship Component a): void</text><text fill="#000000" font-family="sans-serif" font-size="14" lengthAdjust="spacing" textLength="249.633" x="1584.96" y="741.6696">+pullDiscarded(): Starship Component</text><line style="stroke:#181818;stroke-width:1;" x1="1579.96" x2="1717.7565" y1="679.0339" y2="679.0339"/><line style="stroke:#181818;stroke-width:1;" x1="1579.96" x2="1717.7565" y1="681.0339" y2="681.0339"/><text fill="#000000" font-family="sans-serif" font-size="14" lengthAdjust="spacing" textLength="58.4778" x="1717.7565" y="683.9658">methods</text><line style="stroke:#181818;stroke-width:1;" x1="1776.2343" x2="1914.0308" y1="679.0339" y2="679.0339"/><line style="stroke:#181818;stroke-width:1;" x1="1776.2343" x2="1914.0308" y1="681.0339" y2="681.0339"/></g><!--class CommonBoard--><g id="elem_CommonBoard"><rect codeLine="149" fill="#F1F1F1" height="155.4754" id="CommonBoard" rx="2.5" ry="2.5" style="stroke:#181818;stroke-width:0.5;" width="391.7906" x="1551.1" y="1212.252"/><text fill="#000000" font-family="sans-serif" font-size="14" font-weight="bold" lengthAdjust="spacing" textLength="104.4396" x="1694.7755" y="1232.2179">CommonBoard</text><line style="stroke:#181818;stroke-width:0.5;" x1="1552.1" x2="1941.8906" y1="1241.3199" y2="1241.3199"/><text fill="#000000" font-family="sans-serif" font-size="14" lengthAdjust="spacing" textLength="348.3046" x="1557.1" y="1260.2858">-covered_components: Queue&lt;Starship Component&gt;</text><text fill="#000000" font-family="sans-serif" font-size="14" lengthAdjust="spacing" textLength="379.7906" x="1557.1" y="1279.3538">-uncovered_components: ArrayList&lt;Starship Component&gt;</text><text fill="#000000" font-family="sans-serif" font-size="14" lengthAdjust="spacing" textLength="261.365" x="1557.1" y="1321.4896">+pullComponent(): Starship Component</text><text fill="#000000" font-family="sans-serif" font-size="14" lengthAdjust="spacing" textLength="324.0708" x="1557.1" y="1340.5575">+discardComponent(Starship Component a): void</text><text fill="#000000" font-family="sans-serif" font-size="14" lengthAdjust="spacing" textLength="249.633" x="1557.1" y="1359.6254">+pullDiscarded(): Starship Component</text><line style="stroke:#181818;stroke-width:1;" x1="1552.1" x2="1717.7564" y1="1296.9897" y2="1296.9897"/><line style="stroke:#181818;stroke-width:1;" x1="1552.1" x2="1717.7564" y1="1298.9897" y2="1298.9897"/><text fill="#000000" font-family="sans-serif" font-size="14" lengthAdjust="spacing" textLength="58.4778" x="1717.7564" y="1301.9217">methods</text><line style="stroke:#181818;stroke-width:1;" x1="1776.2342" x2="1941.8906" y1="1296.9897" y2="1296.9897"/><line style="stroke:#181818;stroke-width:1;" x1="1776.2342" x2="1941.8906" y1="1298.9897" y2="1298.9897"/></g><!--reverse link iSC to SC--><g id="link_iSC_SC"><path codeLine="194" d="M881,226.222 C881,373.782 881,747.462 881,937.532 " fill="transparent" id="iSC-backto-SC" style="stroke:#181818;stroke-width:1;"/><polygon fill="transparent" points="881,208.222,875,226.222,887,226.222,881,208.222" style="stroke:#181818;stroke-width:1;"/></g><!--reverse link SC to CC--><g id="link_SC_CC"><path codeLine="195" d="M866,1153.982 C866,1153.982 541.35,1169.682 461,1212.252 C329.94,1281.692 224.91,1426.372 173.46,1507.362 " fill="transparent" id="SC-backto-CC" style="stroke:#181818;stroke-width:1;"/></g><!--reverse link CC to ACC--><g id="link_CC_ACC"><path codeLine="196" d="M139,1643.502 C139,1700.502 139,1768.972 139,1825.942 " fill="transparent" id="CC-backto-ACC" style="stroke:#181818;stroke-width:1;"/><polygon fill="transparent" points="139,1625.502,133,1643.502,145,1643.502,139,1625.502" style="stroke:#181818;stroke-width:1;"/></g><!--reverse link SC to EC--><g id="link_SC_EC"><path codeLine="197" d="M866,1153.982 C866,1153.982 738.48,1160.672 657,1212.252 C544.92,1283.212 451.19,1407.602 398.08,1488.242 " fill="transparent" id="SC-backto-EC" style="stroke:#181818;stroke-width:1;"/></g><!--reverse link SC to ASC--><g id="link_SC_ASC"><path codeLine="198" d="M866,1153.982 C866,1153.982 825.92,1182.942 800,1212.252 C711.36,1312.482 627.73,1446.382 585.89,1517.062 " fill="transparent" id="SC-backto-ASC" style="stroke:#181818;stroke-width:1;"/></g><!--reverse link SC to CNC--><g id="link_SC_CNC"><path codeLine="199" d="M866,1153.982 C866,1153.982 813.11,1369.452 783.88,1488.552 " fill="transparent" id="SC-backto-CNC" style="stroke:#181818;stroke-width:1;"/></g><!--reverse link SC to BC--><g id="link_SC_BC"><path codeLine="200" d="M866,1153.982 C866,1153.982 898.01,1185.522 922,1212.252 C1017.26,1318.382 1123.37,1447.962 1179.04,1516.882 " fill="transparent" id="SC-backto-BC" style="stroke:#181818;stroke-width:1;"/></g><!--reverse link SC to STC--><g id="link_SC_STC"><path codeLine="201" d="M866,1153.982 C866,1153.982 934.6,1369.452 972.51,1488.552 " fill="transparent" id="SC-backto-STC" style="stroke:#181818;stroke-width:1;"/></g><!--reverse link SC to SHC--><g id="link_SC_SHC"><path codeLine="202" d="M866,1153.982 C866,1153.982 950.03,1176.292 1008,1212.252 C1152.09,1301.612 1295.04,1443.072 1365.25,1516.932 " fill="transparent" id="SC-backto-SHC" style="stroke:#181818;stroke-width:1;"/></g><!--reverse link iCards to Cards--><g id="link_iCards_Cards"><path codeLine="204" d="M2055,748.802 C2055,853.682 2055,1125.222 2055,1240.612 " fill="transparent" id="iCards-backto-Cards" style="stroke:#181818;stroke-width:1;"/><polygon fill="transparent" points="2055,730.802,2049,748.802,2061,748.802,2055,730.802" style="stroke:#181818;stroke-width:1;"/></g><!--link iCard to Cards--><g id="link_iCard_Cards"><path codeLine="205" d="M2522.241,420.2175 C2561.331,455.9075 2600.09,492.942 2605,504.482 C2637.47,580.802 2649.39,807.642 2605,877.712 C2571.59,930.442 2530.65,904.172 2478,937.712 C2332.07,1030.662 2189.4293,1159.8058 2113.4993,1232.1258 " fill="transparent" id="iCard-Cards" style="stroke:#181818;stroke-width:1;"/><polygon fill="#181818" points="2517.81,416.172,2521.7594,425.1943,2521.5025,419.5433,2527.1535,419.2864,2517.81,416.172" style="stroke:#181818;stroke-width:1;"/><polygon fill="#181818" points="2104.81,1240.402,2111.9134,1239.1603,2113.4993,1232.1258,2106.3959,1233.3674,2104.81,1240.402" style="stroke:#181818;stroke-width:1;"/></g><!--reverse link iCard to Card--><g id="link_iCard_Card"><path codeLine="206" d="M2531.814,427.9893 C2542.974,437.5593 2540.9,435.562 2552,444.482 C2586.92,472.562 2603.12,471.102 2633,504.482 C2659.23,533.792 2682.19,570.472 2700.11,603.462 " fill="transparent" id="iCard-backto-Card" style="stroke:#181818;stroke-width:1;"/><polygon fill="transparent" points="2518.15,416.272,2527.9083,432.5439,2535.7198,423.4346,2518.15,416.272" style="stroke:#181818;stroke-width:1;"/></g><!--link iCardEffect to Card--><g id="link_iCardEffect_Card"><path codeLine="207" d="M2717.6655,403.2423 C2721.7555,453.6223 2727.5467,524.7515 2732.9767,591.4815 " fill="transparent" id="iCardEffect-Card" style="stroke:#181818;stroke-width:1;"/><polygon fill="#181818" points="2717.18,397.262,2713.9214,406.5561,2717.5846,402.2456,2721.8951,405.9088,2717.18,397.262" style="stroke:#181818;stroke-width:1;"/><polygon fill="#181818" points="2733.95,603.442,2737.4502,597.1373,2732.9767,591.4815,2729.4765,597.7862,2733.95,603.442" style="stroke:#181818;stroke-width:1;"/></g><!--reverse link iCardEffect to CardEffect--><g id="link_iCardEffect_CardEffect"><path codeLine="208" d="M2774.7671,409.4951 C2803.4871,436.2651 2824.31,462.222 2840,504.482 C2897.74,659.992 2902.72,724.142 2840,877.712 C2824.56,915.502 2795.94,949.362 2766.93,976.502 " fill="transparent" id="iCardEffect-backto-CardEffect" style="stroke:#181818;stroke-width:1;"/><polygon fill="transparent" points="2761.6,397.222,2770.676,413.8841,2778.8581,405.106,2761.6,397.222" style="stroke:#181818;stroke-width:1;"/></g><!--reverse link iSpaceShip to SpaceShip--><g id="link_iSpaceShip_SpaceShip"><path codeLine="210" d="M2200.0577,459.293 C2214.1177,477.723 2218.55,483.562 2234.22,504.112 " fill="transparent" id="iSpaceShip-backto-SpaceShip" style="stroke:#181818;stroke-width:1;"/><polygon fill="transparent" points="2189.14,444.982,2195.2873,462.9322,2204.828,455.6538,2189.14,444.982" style="stroke:#181818;stroke-width:1;"/></g><!--link Player to iSpaceShip--><g id="link_Player_iSpaceShip"><path codeLine="212" d="M2123,216.392 C2123,234.912 2123,237.682 2123,257.622 " fill="transparent" id="Player-iSpaceShip" style="stroke:#181818;stroke-width:1;"/><polygon fill="#181818" points="2123,210.392,2119,219.392,2123,215.392,2127,219.392,2123,210.392" style="stroke:#181818;stroke-width:1;"/><polygon fill="#181818" points="2123,269.622,2127,263.622,2123,257.622,2119,263.622,2123,269.622" style="stroke:#181818;stroke-width:1;"/></g><!--reverse link iCommonBoard to CommonBoard--><g id="link_iCommonBoard_CommonBoard"><path codeLine="214" d="M1747,768.142 C1747,876.392 1747,1091.042 1747,1212.162 " fill="transparent" id="iCommonBoard-backto-CommonBoard" style="stroke:#181818;stroke-width:1;"/><polygon fill="transparent" points="1747,750.142,1741,768.142,1753,768.142,1747,750.142" style="stroke:#181818;stroke-width:1;"/></g><!--link SC to CommonBoard--><g id="link_SC_CommonBoard"><path codeLine="215" d="M1052.0072,1088.3417 C1179.4972,1120.5517 1354.19,1166.102 1511,1212.252 C1524.02,1216.082 1525.9443,1216.591 1539.4143,1220.751 " fill="transparent" id="SC-CommonBoard" style="stroke:#181818;stroke-width:1;"/><polygon fill="#181818" points="1046.19,1086.872,1053.936,1092.9547,1051.0377,1088.0967,1055.8956,1085.1984,1046.19,1086.872" style="stroke:#181818;stroke-width:1;"/><polygon fill="#181818" points="1550.88,1224.292,1546.3275,1218.6996,1539.4143,1220.751,1543.9668,1226.3434,1550.88,1224.292" style="stroke:#181818;stroke-width:1;"/><text fill="#000000" font-family="sans-serif" font-size="13" lengthAdjust="spacing" textLength="156.7672" x="1386.7536" y="1218.9967">0..n covered_components</text></g><!--SRC=[tLZTRzis47_NNt78Yvsj2OfrVJ6Q0ewQeW7Q9glpLgG1BPrYOZGfa5HIDyZ_lYCbMr-qR0y3jiu8Obdtkq-UxaEZqSok14AYPCRlemLFwPhhH61a_kGoPvej8H7CcFTAsX8xLo9jKE-rAl9BkK3DBPC9mc-HGGi67Tag3PD9LzRKMitdXSLBqZlZFn1UHf6dm2ULefXChWLReNwAW3vF6KUHFaEYCUNMJ81BsoKy-hjVNzss22attgG-YybPWcR1ymdCtEMCBgFdA8f6ezZRaIBPG_Pp9VrDjSoLH6bD594ir1anhOsjYPC9dyN031pDBDDEFco8HwKtPsTBj0kLchEpqgBovpFyUeysLb9YGa4pusEOmERdpIh7hx_VzXaSeO9MQjoT3kw1ZYPRZVd6Kw2mM7pXeWAvCjnvUJoXWrN21O7DZTKiiI7_AlVEcS66Qz0-gPDauqVNYpREqfsmyMk4LjOVGWFqfRhriuIpbTZDMCPbB6Csvt8ec9JUTx9Opb7NYJpiDt6CZnjPtoMMVavWAZXAx-AGdTFAK8-6NUOoXxfp9zkKlzFc3RHjrw1lGqPVb3PVo7ikXr9roRxVvUgn6TiDpT_7j3nAPB9pBeNM9B7BlTrBMsXv9Ptn3ugd0TTAWTTEtZukJgk7yIFF46P5dYjj1ppTwqWgSFqmx9iayUTrDakfPA_i_H_YFRjPrtQbsVskf4eOrGTkLm4_NMDOUfamgovzIRhTuL1Us4ivRh80jxZSxY3rRAV6EHTGrCPMvkuJYFDr4x3K2LS7ns6m3fH2EPgzJkH3TI8Bft304EC1LLKgqVkLfH9R1N3DzUn6WcdwG9eAJGCJqsbeBZXNHA2H87RqfvrdAuG3UhVTHS_nIbn3Mlrek7iJ-AF00jzuxhT_HrtF0qzvWjrXkk5M-68neybEtWS0-DqEqI-oZ5gpGpYLvQ_-qJjhEaNDAMwBtP18PPY2NdnBrR_dOJZe9RrqTZIwkNftDMmYotFHdade7-dA2fcuUMGy5wpyEmw6jQKFd3vAwvnJTWi6XcmaF8SSDJsJYIXIgjDGIERa_o3nReDO8ZmmpMay47ZQ2hX5Gz5-Nvd2nEcr6-KJ6ffw5aEBKSaxGxEUoLOjzlNbk5mJ8FTVnrtMGXxAV71uGtBRaHwDBWKiYoHPS4KB2IGeQ8SoYQ9OMWG4wfO3fKCjbqhwNtiLa7K1B1Enku9qE6WzSeMZPkfp00it5wViNScEwHPbs-fNrwN6rl3WslzTKbVuggJrfRzjirBi0ynJhTdg8os1MmNyNE7ibufDGkxAZcff2QjdQIDk8RCTiRVV10HfND8nD6JjPgaDy_jIS88BBLPTnGRhGMwZPfGmUjfIO385V62Ye99Zd2Z3vw8_ptQYsKZCof_GmNnzzVgsqtXeGHLRXzoIcd7N9NQ0q2ylMq7pzQYqpsYrAm7YV-xyu__AyRVwRslCxtTd7-fXp2p7ykbSKq_equQThBEiX-r3kdl7Q5H8wgjW5mWBfTADpy0DDMEH58AuKfYlF2HnQva5fU7BfqkeIyCSCwNT5-KN68Ay0AE8WuIK3Kzbi7x3uuG_SY483ON1h110pA0BAHstwzlcrByL-uB2ltGn1BMFYB9yauSc2hy4- -PY4tn_50NlRiF7GNoy5J-D3rHmSI1-Uh07dmzaE3yGJslfWGmVuYWAxIZVQdnpsOYQW-aR9_INNQXljMAtM_GdspUra2s8XZ6DWJdgTJuWOA-0Rt3LaEVKzPjcFmhrREB4dcmVNS8HB_KSlJmzfUUZDv0S3OZx2m00]--></g></svg>