<svg xmlns="http://www.w3.org/2000/svg" xmlns:xlink="http://www.w3.org/1999/xlink" contentStyleType="text/css" data-diagram-type="SEQUENCE" height="1862px" preserveAspectRatio="none" style="width:2133px;height:1862px;background:#FFFFFF;" version="1.1" viewBox="0 0 2133 1862" width="2133px" zoomAndPan="magnify"><defs/><g><g><title>ClientController</title><rect fill="#000000" fill-opacity="0.00000" height="1751.4189" width="8" x="55.9258" y="56.0679"/><line style="stroke:#181818;stroke-width:0.5;stroke-dasharray:5.0,5.0;" x1="59" x2="59" y1="56.0679" y2="1807.4868"/></g><g><title>ClientMessage</title><rect fill="#000000" fill-opacity="0.00000" height="1751.4189" width="8" x="194.8329" y="56.0679"/><line style="stroke:#181818;stroke-width:0.5;stroke-dasharray:5.0,5.0;" x1="198.8131" x2="198.8131" y1="56.0679" y2="1807.4868"/></g><g><title>Queue(ClientSide)</title><rect fill="#000000" fill-opacity="0.00000" height="1751.4189" width="8" x="324.8065" y="56.0679"/><line style="stroke:#181818;stroke-width:0.5;stroke-dasharray:5.0,5.0;" x1="327.8527" x2="327.8527" y1="56.0679" y2="1807.4868"/></g><g><title>SocketConnection</title><rect fill="#000000" fill-opacity="0.00000" height="1751.4189" width="8" x="484.2796" y="56.0679"/><line style="stroke:#181818;stroke-width:0.5;stroke-dasharray:5.0,5.0;" x1="488.1158" x2="488.1158" y1="56.0679" y2="1807.4868"/></g><g><title>Socket</title><rect fill="#000000" fill-opacity="0.00000" height="1751.4189" width="8" x="727.5508" y="56.0679"/><line style="stroke:#181818;stroke-width:0.5;stroke-dasharray:5.0,5.0;" x1="730.8999" x2="730.8999" y1="56.0679" y2="1807.4868"/></g><g><title>NetworkServer</title><rect fill="#000000" fill-opacity="0.00000" height="1751.4189" width="8" x="814.4395" y="56.0679"/><line style="stroke:#181818;stroke-width:0.5;stroke-dasharray:5.0,5.0;" x1="818.2017" x2="818.2017" y1="56.0679" y2="1807.4868"/></g><g><title>Socket</title><rect fill="#000000" fill-opacity="0.00000" height="1751.4189" width="8" x="984.0887" y="56.0679"/><line style="stroke:#181818;stroke-width:0.5;stroke-dasharray:5.0,5.0;" x1="987.4377" x2="987.4377" y1="56.0679" y2="1807.4868"/></g><g><title>serverPool</title><rect fill="#000000" fill-opacity="0.00000" height="1751.4189" width="8" x="1062.8374" y="56.0679"/><line style="stroke:#181818;stroke-width:0.5;stroke-dasharray:5.0,5.0;" x1="1066.7396" x2="1066.7396" y1="56.0679" y2="1807.4868"/></g><g><title>MainServerController</title><rect fill="#000000" fill-opacity="0.00000" height="1751.4189" width="8" x="1190.509" y="56.0679"/><line style="stroke:#181818;stroke-width:0.5;stroke-dasharray:5.0,5.0;" x1="1193.9353" x2="1193.9353" y1="56.0679" y2="1807.4868"/></g><g><title>to_setup_tcp</title><rect fill="#000000" fill-opacity="0.00000" height="1751.4189" width="8" x="1519.2263" y="56.0679"/><line style="stroke:#181818;stroke-width:0.5;stroke-dasharray:5.0,5.0;" x1="1522.5974" x2="1522.5974" y1="56.0679" y2="1807.4868"/></g><g><title>SocketClient</title><rect fill="#000000" fill-opacity="0.00000" height="1751.4189" width="8" x="1623.343" y="56.0679"/><line style="stroke:#181818;stroke-width:0.5;stroke-dasharray:5.0,5.0;" x1="1626.8551" x2="1626.8551" y1="56.0679" y2="1807.4868"/></g><g><title>ClientDescriptor</title><rect fill="#000000" fill-opacity="0.00000" height="1751.4189" width="8" x="1796.9731" y="56.0679"/><line style="stroke:#181818;stroke-width:0.5;stroke-dasharray:5.0,5.0;" x1="1800.7103" x2="1800.7103" y1="56.0679" y2="1807.4868"/></g><g><title>ServerMessage</title><rect fill="#000000" fill-opacity="0.00000" height="1751.4189" width="8" x="1916.4957" y="56.0679"/><line style="stroke:#181818;stroke-width:0.5;stroke-dasharray:5.0,5.0;" x1="1920.2359" x2="1920.2359" y1="56.0679" y2="1807.4868"/></g><g><title>Queue(ServerSide)</title><rect fill="#000000" fill-opacity="0.00000" height="1751.4189" width="8" x="2050.9493" y="56.0679"/><line style="stroke:#181818;stroke-width:0.5;stroke-dasharray:5.0,5.0;" x1="2054.7555" x2="2054.7555" y1="56.0679" y2="1807.4868"/></g><g class="participant participant-head" data-participant="ClientController"><text fill="#000000" font-family="sans-serif" font-size="14" lengthAdjust="spacing" textLength="103.8516" x="5" y="51.9659">ClientController</text><ellipse cx="59.9258" cy="21" fill="#E2E2F0" rx="12" ry="12" style="stroke:#181818;stroke-width:0.5;"/><polygon fill="#181818" points="55.9258,9,61.9258,4,59.9258,9,61.9258,14,55.9258,9" style="stroke:#181818;stroke-width:1;"/></g><g class="participant participant-tail" data-participant="ClientController"><text fill="#000000" font-family="sans-serif" font-size="14" lengthAdjust="spacing" textLength="103.8516" x="5" y="1821.4527">ClientController</text><ellipse cx="59.9258" cy="1841.5547" fill="#E2E2F0" rx="12" ry="12" style="stroke:#181818;stroke-width:0.5;"/><polygon fill="#181818" points="55.9258,1829.5547,61.9258,1824.5547,59.9258,1829.5547,61.9258,1834.5547,55.9258,1829.5547" style="stroke:#181818;stroke-width:1;"/></g><g class="participant participant-head" data-participant="ClientMessage"><text fill="#000000" font-family="sans-serif" font-size="14" lengthAdjust="spacing" textLength="96.0396" x="147.8131" y="51.9659">ClientMessage</text><ellipse cx="198.8329" cy="21" fill="#E2E2F0" rx="12" ry="12" style="stroke:#181818;stroke-width:0.5;"/><line style="stroke:#181818;stroke-width:0.5;" x1="186.8329" x2="210.8329" y1="35" y2="35"/></g><g class="participant participant-tail" data-participant="ClientMessage"><text fill="#000000" font-family="sans-serif" font-size="14" lengthAdjust="spacing" textLength="96.0396" x="147.8131" y="1821.4527">ClientMessage</text><ellipse cx="198.8329" cy="1841.5547" fill="#E2E2F0" rx="12" ry="12" style="stroke:#181818;stroke-width:0.5;"/><line style="stroke:#181818;stroke-width:0.5;" x1="186.8329" x2="210.8329" y1="1855.5547" y2="1855.5547"/></g><g class="participant participant-head" data-participant="ThreadSafeMessageQueueC"><path d="M264.8527,27 L392.7602,27 C397.7602,27 397.7602,41.534 397.7602,41.534 C397.7602,41.534 397.7602,56.0679 392.7602,56.0679 L264.8527,56.0679 C259.8527,56.0679 259.8527,41.534 259.8527,41.534 C259.8527,41.534 259.8527,27 264.8527,27" fill="#E2E2F0" style="stroke:#181818;stroke-width:0.5;"/><path d="M392.7602,27 C387.7602,27 387.7602,41.534 387.7602,41.534 C387.7602,56.0679 392.7602,56.0679 392.7602,56.0679" fill="none" style="stroke:#181818;stroke-width:0.5;"/><text fill="#000000" font-family="sans-serif" font-size="14" lengthAdjust="spacing" textLength="117.9075" x="264.8527" y="46.9659">Queue(ClientSide)</text></g><g class="participant participant-tail" data-participant="ThreadSafeMessageQueueC"><path d="M264.8527,1806.4868 L392.7602,1806.4868 C397.7602,1806.4868 397.7602,1821.0208 397.7602,1821.0208 C397.7602,1821.0208 397.7602,1835.5547 392.7602,1835.5547 L264.8527,1835.5547 C259.8527,1835.5547 259.8527,1821.0208 259.8527,1821.0208 C259.8527,1821.0208 259.8527,1806.4868 264.8527,1806.4868" fill="#E2E2F0" style="stroke:#181818;stroke-width:0.5;"/><path d="M392.7602,1806.4868 C387.7602,1806.4868 387.7602,1821.0208 387.7602,1821.0208 C387.7602,1835.5547 392.7602,1835.5547 392.7602,1835.5547" fill="none" style="stroke:#181818;stroke-width:0.5;"/><text fill="#000000" font-family="sans-serif" font-size="14" lengthAdjust="spacing" textLength="117.9075" x="264.8527" y="1826.4527">Queue(ClientSide)</text></g><g class="participant participant-head" data-participant="SocketConnection"><text fill="#000000" font-family="sans-serif" font-size="14" lengthAdjust="spacing" textLength="118.3275" x="426.1158" y="51.9659">SocketConnection</text><ellipse cx="488.2796" cy="21" fill="#E2E2F0" rx="12" ry="12" style="stroke:#181818;stroke-width:0.5;"/><line style="stroke:#181818;stroke-width:0.5;" x1="476.2796" x2="500.2796" y1="35" y2="35"/></g><g class="participant participant-tail" data-participant="SocketConnection"><text fill="#000000" font-family="sans-serif" font-size="14" lengthAdjust="spacing" textLength="118.3275" x="426.1158" y="1821.4527">SocketConnection</text><ellipse cx="488.2796" cy="1841.5547" fill="#E2E2F0" rx="12" ry="12" style="stroke:#181818;stroke-width:0.5;"/><line style="stroke:#181818;stroke-width:0.5;" x1="476.2796" x2="500.2796" y1="1855.5547" y2="1855.5547"/></g><g class="participant participant-head" data-participant="SocketC"><text fill="#000000" font-family="sans-serif" font-size="14" lengthAdjust="spacing" textLength="43.3018" x="706.8999" y="51.9659">Socket</text><path d="M711.0508,9 L711.0508,33 M711.0508,21 L728.0508,21" fill="none" style="stroke:#181818;stroke-width:0.5;"/><ellipse cx="740.0508" cy="21" fill="#E2E2F0" rx="12" ry="12" style="stroke:#181818;stroke-width:0.5;"/></g><g class="participant participant-tail" data-participant="SocketC"><text fill="#000000" font-family="sans-serif" font-size="14" lengthAdjust="spacing" textLength="43.3018" x="706.8999" y="1821.4527">Socket</text><path d="M711.0508,1829.5547 L711.0508,1853.5547 M711.0508,1841.5547 L728.0508,1841.5547" fill="none" style="stroke:#181818;stroke-width:0.5;"/><ellipse cx="740.0508" cy="1841.5547" fill="#E2E2F0" rx="12" ry="12" style="stroke:#181818;stroke-width:0.5;"/></g><g class="participant participant-head" data-participant="NetworkServer"><text fill="#000000" font-family="sans-serif" font-size="14" lengthAdjust="spacing" textLength="98.4756" x="766.2017" y="51.9659">NetworkServer</text><path d="M797.9395,9 L797.9395,33 M797.9395,21 L814.9395,21" fill="none" style="stroke:#181818;stroke-width:0.5;"/><ellipse cx="826.9395" cy="21" fill="#E2E2F0" rx="12" ry="12" style="stroke:#181818;stroke-width:0.5;"/></g><g class="participant participant-tail" data-participant="NetworkServer"><text fill="#000000" font-family="sans-serif" font-size="14" lengthAdjust="spacing" textLength="98.4756" x="766.2017" y="1821.4527">NetworkServer</text><path d="M797.9395,1829.5547 L797.9395,1853.5547 M797.9395,1841.5547 L814.9395,1841.5547" fill="none" style="stroke:#181818;stroke-width:0.5;"/><ellipse cx="826.9395" cy="1841.5547" fill="#E2E2F0" rx="12" ry="12" style="stroke:#181818;stroke-width:0.5;"/></g><g class="participant participant-head" data-participant="SocketS"><text fill="#000000" font-family="sans-serif" font-size="14" lengthAdjust="spacing" textLength="43.3018" x="963.4377" y="51.9659">Socket</text><path d="M967.5887,9 L967.5887,33 M967.5887,21 L984.5887,21" fill="none" style="stroke:#181818;stroke-width:0.5;"/><ellipse cx="996.5887" cy="21" fill="#E2E2F0" rx="12" ry="12" style="stroke:#181818;stroke-width:0.5;"/></g><g class="participant participant-tail" data-participant="SocketS"><text fill="#000000" font-family="sans-serif" font-size="14" lengthAdjust="spacing" textLength="43.3018" x="963.4377" y="1821.4527">Socket</text><path d="M967.5887,1829.5547 L967.5887,1853.5547 M967.5887,1841.5547 L984.5887,1841.5547" fill="none" style="stroke:#181818;stroke-width:0.5;"/><ellipse cx="996.5887" cy="1841.5547" fill="#E2E2F0" rx="12" ry="12" style="stroke:#181818;stroke-width:0.5;"/></g><g class="participant participant-head" data-participant="ExecutorService"><rect fill="#E2E2F0" height="33.0679" style="stroke:#181818;stroke-width:0.5;" width="84.1957" x="1026.7396" y="18"/><rect fill="#E2E2F0" height="33.0679" style="stroke:#181818;stroke-width:0.5;" width="84.1957" x="1022.7396" y="22"/><text fill="#000000" font-family="sans-serif" font-size="14" lengthAdjust="spacing" textLength="70.1957" x="1029.7396" y="43.9659">serverPool</text></g><g class="participant participant-tail" data-participant="ExecutorService"><rect fill="#E2E2F0" height="33.0679" style="stroke:#181818;stroke-width:0.5;" width="84.1957" x="1026.7396" y="1806.4868"/><rect fill="#E2E2F0" height="33.0679" style="stroke:#181818;stroke-width:0.5;" width="84.1957" x="1022.7396" y="1810.4868"/><text fill="#000000" font-family="sans-serif" font-size="14" lengthAdjust="spacing" textLength="70.1957" x="1029.7396" y="1832.4527">serverPool</text></g><g class="participant participant-head" data-participant="MainServerController"><text fill="#000000" font-family="sans-serif" font-size="14" lengthAdjust="spacing" textLength="141.1475" x="1120.9353" y="51.9659">MainServerController</text><ellipse cx="1194.509" cy="21" fill="#E2E2F0" rx="12" ry="12" style="stroke:#181818;stroke-width:0.5;"/><polygon fill="#181818" points="1190.509,9,1196.509,4,1194.509,9,1196.509,14,1190.509,9" style="stroke:#181818;stroke-width:1;"/></g><g class="participant participant-tail" data-participant="MainServerController"><text fill="#000000" font-family="sans-serif" font-size="14" lengthAdjust="spacing" textLength="141.1475" x="1120.9353" y="1821.4527">MainServerController</text><ellipse cx="1194.509" cy="1841.5547" fill="#E2E2F0" rx="12" ry="12" style="stroke:#181818;stroke-width:0.5;"/><polygon fill="#181818" points="1190.509,1829.5547,1196.509,1824.5547,1194.509,1829.5547,1196.509,1834.5547,1190.509,1829.5547" style="stroke:#181818;stroke-width:1;"/></g><g class="participant participant-head" data-participant="SocketList"><rect fill="#E2E2F0" height="33.0679" style="stroke:#181818;stroke-width:0.5;" width="97.2577" x="1476.5974" y="18"/><rect fill="#E2E2F0" height="33.0679" style="stroke:#181818;stroke-width:0.5;" width="97.2577" x="1472.5974" y="22"/><text fill="#000000" font-family="sans-serif" font-size="14" lengthAdjust="spacing" textLength="83.2577" x="1479.5974" y="43.9659">to_setup_tcp</text></g><g class="participant participant-tail" data-participant="SocketList"><rect fill="#E2E2F0" height="33.0679" style="stroke:#181818;stroke-width:0.5;" width="97.2577" x="1476.5974" y="1806.4868"/><rect fill="#E2E2F0" height="33.0679" style="stroke:#181818;stroke-width:0.5;" width="97.2577" x="1472.5974" y="1810.4868"/><text fill="#000000" font-family="sans-serif" font-size="14" lengthAdjust="spacing" textLength="83.2577" x="1479.5974" y="1832.4527">to_setup_tcp</text></g><g class="participant participant-head" data-participant="SocketClient"><text fill="#000000" font-family="sans-serif" font-size="14" lengthAdjust="spacing" textLength="80.9757" x="1583.8551" y="51.9659">SocketClient</text><ellipse cx="1627.343" cy="21" fill="#E2E2F0" rx="12" ry="12" style="stroke:#181818;stroke-width:0.5;"/><line style="stroke:#181818;stroke-width:0.5;" x1="1615.343" x2="1639.343" y1="35" y2="35"/></g><g class="participant participant-tail" data-participant="SocketClient"><text fill="#000000" font-family="sans-serif" font-size="14" lengthAdjust="spacing" textLength="80.9757" x="1583.8551" y="1821.4527">SocketClient</text><ellipse cx="1627.343" cy="1841.5547" fill="#E2E2F0" rx="12" ry="12" style="stroke:#181818;stroke-width:0.5;"/><line style="stroke:#181818;stroke-width:0.5;" x1="1615.343" x2="1639.343" y1="1855.5547" y2="1855.5547"/></g><g class="participant participant-head" data-participant="ClientDescriptor"><text fill="#000000" font-family="sans-serif" font-size="14" lengthAdjust="spacing" textLength="106.5256" x="1744.7103" y="51.9659">ClientDescriptor</text><ellipse cx="1800.9731" cy="21" fill="#E2E2F0" rx="12" ry="12" style="stroke:#181818;stroke-width:0.5;"/><line style="stroke:#181818;stroke-width:0.5;" x1="1788.9731" x2="1812.9731" y1="35" y2="35"/></g><g class="participant participant-tail" data-participant="ClientDescriptor"><text fill="#000000" font-family="sans-serif" font-size="14" lengthAdjust="spacing" textLength="106.5256" x="1744.7103" y="1821.4527">ClientDescriptor</text><ellipse cx="1800.9731" cy="1841.5547" fill="#E2E2F0" rx="12" ry="12" style="stroke:#181818;stroke-width:0.5;"/><line style="stroke:#181818;stroke-width:0.5;" x1="1788.9731" x2="1812.9731" y1="1855.5547" y2="1855.5547"/></g><g class="participant participant-head" data-participant="ServerMessage"><text fill="#000000" font-family="sans-serif" font-size="14" lengthAdjust="spacing" textLength="100.5196" x="1867.2359" y="51.9659">ServerMessage</text><ellipse cx="1920.4957" cy="21" fill="#E2E2F0" rx="12" ry="12" style="stroke:#181818;stroke-width:0.5;"/><line style="stroke:#181818;stroke-width:0.5;" x1="1908.4957" x2="1932.4957" y1="35" y2="35"/></g><g class="participant participant-tail" data-participant="ServerMessage"><text fill="#000000" font-family="sans-serif" font-size="14" lengthAdjust="spacing" textLength="100.5196" x="1867.2359" y="1821.4527">ServerMessage</text><ellipse cx="1920.4957" cy="1841.5547" fill="#E2E2F0" rx="12" ry="12" style="stroke:#181818;stroke-width:0.5;"/><line style="stroke:#181818;stroke-width:0.5;" x1="1908.4957" x2="1932.4957" y1="1855.5547" y2="1855.5547"/></g><g class="participant participant-head" data-participant="ThreadSafeMessageQueueS"><path d="M1988.7555,27 L2121.143,27 C2126.143,27 2126.143,41.534 2126.143,41.534 C2126.143,41.534 2126.143,56.0679 2121.143,56.0679 L1988.7555,56.0679 C1983.7555,56.0679 1983.7555,41.534 1983.7555,41.534 C1983.7555,41.534 1983.7555,27 1988.7555,27" fill="#E2E2F0" style="stroke:#181818;stroke-width:0.5;"/><path d="M2121.143,27 C2116.143,27 2116.143,41.534 2116.143,41.534 C2116.143,56.0679 2121.143,56.0679 2121.143,56.0679" fill="none" style="stroke:#181818;stroke-width:0.5;"/><text fill="#000000" font-family="sans-serif" font-size="14" lengthAdjust="spacing" textLength="122.3875" x="1988.7555" y="46.9659">Queue(ServerSide)</text></g><g class="participant participant-tail" data-participant="ThreadSafeMessageQueueS"><path d="M1988.7555,1806.4868 L2121.143,1806.4868 C2126.143,1806.4868 2126.143,1821.0208 2126.143,1821.0208 C2126.143,1821.0208 2126.143,1835.5547 2121.143,1835.5547 L1988.7555,1835.5547 C1983.7555,1835.5547 1983.7555,1821.0208 1983.7555,1821.0208 C1983.7555,1821.0208 1983.7555,1806.4868 1988.7555,1806.4868" fill="#E2E2F0" style="stroke:#181818;stroke-width:0.5;"/><path d="M2121.143,1806.4868 C2116.143,1806.4868 2116.143,1821.0208 2116.143,1821.0208 C2116.143,1835.5547 2121.143,1835.5547 2121.143,1835.5547" fill="none" style="stroke:#181818;stroke-width:0.5;"/><text fill="#000000" font-family="sans-serif" font-size="14" lengthAdjust="spacing" textLength="122.3875" x="1988.7555" y="1826.4527">Queue(ServerSide)</text></g><g class="message" data-participant-1="ClientController" data-participant-2="ThreadSafeMessageQueueC"><polygon fill="#181818" points="316.8065,85.7739,326.8065,89.7739,316.8065,93.7739,320.8065,89.7739" style="stroke:#181818;stroke-width:1;"/><line style="stroke:#181818;stroke-width:1;" x1="59.9258" x2="322.8065" y1="89.7739" y2="89.7739"/><text fill="#000000" font-family="sans-serif" font-size="13" lengthAdjust="spacing" textLength="76.0891" x="66.9258" y="83.9649">Constructor;</text></g><g class="message" data-participant-1="ClientController" data-participant-2="SocketConnection"><polygon fill="#181818" points="476.2796,117.4799,486.2796,121.4799,476.2796,125.4799,480.2796,121.4799" style="stroke:#181818;stroke-width:1;"/><line style="stroke:#181818;stroke-width:1;" x1="59.9258" x2="482.2796" y1="121.4799" y2="121.4799"/><text fill="#000000" font-family="sans-serif" font-size="13" lengthAdjust="spacing" textLength="300.8463" x="66.9258" y="115.6709">new SocketConnection(Queue, String, String, int);</text></g><g class="message" data-participant-1="SocketConnection" data-participant-2="SocketC"><polygon fill="#181818" points="719.5508,149.186,729.5508,153.186,719.5508,157.186,723.5508,153.186" style="stroke:#181818;stroke-width:1;"/><line style="stroke:#181818;stroke-width:1;" x1="488.2796" x2="725.5508" y1="153.186" y2="153.186"/><text fill="#000000" font-family="sans-serif" font-size="13" lengthAdjust="spacing" textLength="139.9842" x="495.2796" y="147.377">new Socket(String, int);</text></g><g class="message" data-participant-1="SocketC" data-participant-2="NetworkServer"><polygon fill="#181818" points="806.4395,180.892,816.4395,184.892,806.4395,188.892,810.4395,184.892" style="stroke:#181818;stroke-width:1;"/><line style="stroke:#181818;stroke-width:1;" x1="731.5508" x2="812.4395" y1="184.892" y2="184.892"/><text fill="#000000" font-family="sans-serif" font-size="13" lengthAdjust="spacing" textLength="51.0771" x="738.5508" y="179.083">accept();</text></g><g class="message" data-participant-1="NetworkServer" data-participant-2="NetworkServer"><line style="stroke:#181818;stroke-width:1;" x1="818.4395" x2="860.4395" y1="216.598" y2="216.598"/><line style="stroke:#181818;stroke-width:1;" x1="860.4395" x2="860.4395" y1="216.598" y2="229.598"/><line style="stroke:#181818;stroke-width:1;" x1="819.4395" x2="860.4395" y1="229.598" y2="229.598"/><polygon fill="#181818" points="829.4395,225.598,819.4395,229.598,829.4395,233.598,825.4395,229.598" style="stroke:#181818;stroke-width:1;"/><text fill="#000000" font-family="sans-serif" font-size="13" lengthAdjust="spacing" textLength="155.6491" x="825.4395" y="210.789">new SocketClient(Socket);</text></g><g class="message" data-participant-1="NetworkServer" data-participant-2="MainServerController"><polygon fill="#181818" points="1182.509,257.304,1192.509,261.304,1182.509,265.304,1186.509,261.304" style="stroke:#181818;stroke-width:1;"/><line style="stroke:#181818;stroke-width:1;" x1="818.4395" x2="1188.509" y1="261.304" y2="261.304"/><text fill="#000000" font-family="sans-serif" font-size="13" lengthAdjust="spacing" textLength="184.0672" x="825.4395" y="255.495">connectListener(SocketClient);</text></g><g class="message" data-participant-1="NetworkServer" data-participant-2="ExecutorService"><polygon fill="#181818" points="1054.8374,289.01,1064.8374,293.01,1054.8374,297.01,1058.8374,293.01" style="stroke:#181818;stroke-width:1;"/><line style="stroke:#181818;stroke-width:1;" x1="818.4395" x2="1060.8374" y1="293.01" y2="293.01"/><text fill="#000000" font-family="sans-serif" font-size="13" lengthAdjust="spacing" textLength="128.9341" x="825.4395" y="287.201">submit(SocketClient);</text></g><g class="message" data-participant-1="ExecutorService" data-participant-2="SocketClient"><polygon fill="#181818" points="1615.343,320.716,1625.343,324.716,1615.343,328.716,1619.343,324.716" style="stroke:#181818;stroke-width:1;"/><line style="stroke:#181818;stroke-width:1;" x1="1066.8374" x2="1621.343" y1="324.716" y2="324.716"/><text fill="#000000" font-family="sans-serif" font-size="13" lengthAdjust="spacing" textLength="39.5591" x="1073.8374" y="318.907">start();</text></g><g class="message" data-participant-1="NetworkServer" data-participant-2="MainServerController"><polygon fill="#181818" points="1182.509,352.4221,1192.509,356.4221,1182.509,360.4221,1186.509,356.4221" style="stroke:#181818;stroke-width:1;"/><line style="stroke:#181818;stroke-width:1;" x1="818.4395" x2="1188.509" y1="356.4221" y2="356.4221"/><text fill="#000000" font-family="sans-serif" font-size="13" lengthAdjust="spacing" textLength="184.0672" x="825.4395" y="350.6131">connectListener(SocketClient);</text></g><g class="message" data-participant-1="MainServerController" data-participant-2="SocketList"><polygon fill="#181818" points="1511.2263,384.1281,1521.2263,388.1281,1511.2263,392.1281,1515.2263,388.1281" style="stroke:#181818;stroke-width:1;"/><line style="stroke:#181818;stroke-width:1;" x1="1194.509" x2="1517.2263" y1="388.1281" y2="388.1281"/><text fill="#000000" font-family="sans-serif" font-size="13" lengthAdjust="spacing" textLength="109.7591" x="1201.509" y="382.3191">add(SocketClient);</text></g><g class="message" data-participant-1="ClientController" data-participant-2="SocketConnection"><polygon fill="#181818" points="476.2796,415.8341,486.2796,419.8341,476.2796,423.8341,480.2796,419.8341" style="stroke:#181818;stroke-width:1;"/><line style="stroke:#181818;stroke-width:1;" x1="59.9258" x2="482.2796" y1="419.8341" y2="419.8341"/><text fill="#000000" font-family="sans-serif" font-size="13" lengthAdjust="spacing" textLength="321.0483" x="66.9258" y="414.0251">sendMessage(new UsernameSetupMessage(String));</text></g><g class="message" data-participant-1="SocketConnection" data-participant-2="SocketC"><polygon fill="#181818" points="719.5508,447.5401,729.5508,451.5401,719.5508,455.5401,723.5508,451.5401" style="stroke:#181818;stroke-width:1;"/><line style="stroke:#181818;stroke-width:1;" x1="488.2796" x2="725.5508" y1="451.5401" y2="451.5401"/><text fill="#000000" font-family="sans-serif" font-size="13" lengthAdjust="spacing" textLength="160.6542" x="495.2796" y="445.7311">out.writeObject(message);</text></g><g class="message" data-participant-1="SocketClient" data-participant-2="SocketS"><polygon fill="#181818" points="999.0887,479.2461,989.0887,483.2461,999.0887,487.2461,995.0887,483.2461" style="stroke:#181818;stroke-width:1;"/><line style="stroke:#181818;stroke-width:1;" x1="993.0887" x2="1626.343" y1="483.2461" y2="483.2461"/><text fill="#000000" font-family="sans-serif" font-size="13" lengthAdjust="spacing" textLength="90.4281" x="1005.0887" y="477.4371">in.readObject()</text></g><g class="message" data-participant-1="SocketS" data-participant-2="SocketClient"><polygon fill="#181818" points="1615.343,510.9521,1625.343,514.9521,1615.343,518.9521,1619.343,514.9521" style="stroke:#181818;stroke-width:1;"/><line style="stroke:#181818;stroke-width:1;" x1="988.0887" x2="1621.343" y1="514.9521" y2="514.9521"/><text fill="#000000" font-family="sans-serif" font-size="13" lengthAdjust="spacing" textLength="223.4312" x="995.0887" y="509.1431">return Object cast as ServerMessage</text></g><g class="message" data-participant-1="SocketClient" data-participant-2="MainServerController"><polygon fill="#181818" points="1205.509,542.6582,1195.509,546.6582,1205.509,550.6582,1201.509,546.6582" style="stroke:#181818;stroke-width:1;"/><line style="stroke:#181818;stroke-width:1;" x1="1199.509" x2="1626.343" y1="546.6582" y2="546.6582"/><text fill="#000000" font-family="sans-serif" font-size="13" lengthAdjust="spacing" textLength="253.5653" x="1211.509" y="540.8492">setupSocketListener(SocketClient, String);</text></g><g class="message" data-participant-1="MainServerController" data-participant-2="SocketList"><polygon fill="#181818" points="1511.2263,574.3642,1521.2263,578.3642,1511.2263,582.3642,1515.2263,578.3642" style="stroke:#181818;stroke-width:1;"/><line style="stroke:#181818;stroke-width:1;" x1="1194.509" x2="1517.2263" y1="578.3642" y2="578.3642"/><text fill="#000000" font-family="sans-serif" font-size="13" lengthAdjust="spacing" textLength="133.1331" x="1201.509" y="572.5552">remove(SocketClient);</text></g><g class="message" data-participant-1="MainServerController" data-participant-2="ClientDescriptor"><polygon fill="#181818" points="1788.9731,606.0702,1798.9731,610.0702,1788.9731,614.0702,1792.9731,610.0702" style="stroke:#181818;stroke-width:1;"/><line style="stroke:#181818;stroke-width:1;" x1="1194.509" x2="1794.9731" y1="610.0702" y2="610.0702"/><text fill="#000000" font-family="sans-serif" font-size="13" lengthAdjust="spacing" textLength="269.7373" x="1201.509" y="604.2612">new ClientDescriptor(String, RMIClientStub);</text></g><g class="message" data-participant-1="MainServerController" data-participant-2="MainServerController"><line style="stroke:#181818;stroke-width:1;" x1="1194.509" x2="1236.509" y1="641.7762" y2="641.7762"/><line style="stroke:#181818;stroke-width:1;" x1="1236.509" x2="1236.509" y1="641.7762" y2="654.7762"/><line style="stroke:#181818;stroke-width:1;" x1="1195.509" x2="1236.509" y1="654.7762" y2="654.7762"/><polygon fill="#181818" points="1205.509,650.7762,1195.509,654.7762,1205.509,658.7762,1201.509,654.7762" style="stroke:#181818;stroke-width:1;"/><text fill="#000000" font-family="sans-serif" font-size="13" lengthAdjust="spacing" textLength="158.6392" x="1201.509" y="635.9672">connect(ClientDescriptor);</text></g><g class="message" data-participant-1="MainServerController" data-participant-2="MainServerController"><line style="stroke:#181818;stroke-width:1;" x1="1194.509" x2="1236.509" y1="686.4822" y2="686.4822"/><line style="stroke:#181818;stroke-width:1;" x1="1236.509" x2="1236.509" y1="686.4822" y2="699.4822"/><line style="stroke:#181818;stroke-width:1;" x1="1195.509" x2="1236.509" y1="699.4822" y2="699.4822"/><polygon fill="#181818" points="1205.509,695.4822,1195.509,699.4822,1205.509,703.4822,1201.509,699.4822" style="stroke:#181818;stroke-width:1;"/><text fill="#000000" font-family="sans-serif" font-size="13" lengthAdjust="spacing" textLength="298.8833" x="1201.509" y="680.6732">sendMessage(new NotifyStateUpdateMessage());</text></g><g class="message" data-participant-1="MainServerController" data-participant-2="ClientDescriptor"><polygon fill="#181818" points="1788.9731,727.1882,1798.9731,731.1882,1788.9731,735.1882,1792.9731,731.1882" style="stroke:#181818;stroke-width:1;"/><line style="stroke:#181818;stroke-width:1;" x1="1194.509" x2="1794.9731" y1="731.1882" y2="731.1882"/><text fill="#000000" font-family="sans-serif" font-size="13" lengthAdjust="spacing" textLength="149.6301" x="1201.509" y="725.3792">sendMessage(message);</text></g><g class="message" data-participant-1="ClientDescriptor" data-participant-2="SocketClient"><polygon fill="#181818" points="1638.343,758.8943,1628.343,762.8943,1638.343,766.8943,1634.343,762.8943" style="stroke:#181818;stroke-width:1;"/><line style="stroke:#181818;stroke-width:1;" x1="1632.343" x2="1799.9731" y1="762.8943" y2="762.8943"/><text fill="#000000" font-family="sans-serif" font-size="13" lengthAdjust="spacing" textLength="149.6301" x="1644.343" y="757.0853">sendMessage(message);</text></g><g class="message" data-participant-1="SocketClient" data-participant-2="SocketS"><polygon fill="#181818" points="999.0887,790.6003,989.0887,794.6003,999.0887,798.6003,995.0887,794.6003" style="stroke:#181818;stroke-width:1;"/><line style="stroke:#181818;stroke-width:1;" x1="993.0887" x2="1626.343" y1="794.6003" y2="794.6003"/><text fill="#000000" font-family="sans-serif" font-size="13" lengthAdjust="spacing" textLength="160.6542" x="1005.0887" y="788.7913">out.writeObject(message);</text></g><g class="message" data-participant-1="SocketS" data-participant-2="SocketC"><polygon fill="#181818" points="742.5508,822.3063,732.5508,826.3063,742.5508,830.3063,738.5508,826.3063" style="stroke:#181818;stroke-width:1;"/><line style="stroke:#181818;stroke-width:1;" x1="736.5508" x2="987.0887" y1="826.3063" y2="826.3063"/><text fill="#000000" font-family="sans-serif" font-size="13" lengthAdjust="spacing" textLength="85.8131" x="748.5508" y="820.4973">(TCP Transfer)</text></g><g class="message" data-participant-1="SocketConnection" data-participant-2="SocketC"><polygon fill="#181818" points="719.5508,854.0123,729.5508,858.0123,719.5508,862.0123,723.5508,858.0123" style="stroke:#181818;stroke-width:1;"/><line style="stroke:#181818;stroke-width:1;" x1="488.2796" x2="725.5508" y1="858.0123" y2="858.0123"/><text fill="#000000" font-family="sans-serif" font-size="13" lengthAdjust="spacing" textLength="93.9121" x="495.2796" y="852.2033">in.readObject();</text></g><g class="message" data-participant-1="SocketC" data-participant-2="SocketConnection"><polygon fill="#181818" points="499.2796,885.7183,489.2796,889.7183,499.2796,893.7183,495.2796,889.7183" style="stroke:#181818;stroke-width:1;"/><line style="stroke:#181818;stroke-width:1;" x1="493.2796" x2="730.5508" y1="889.7183" y2="889.7183"/><text fill="#000000" font-family="sans-serif" font-size="13" lengthAdjust="spacing" textLength="219.2712" x="505.2796" y="883.9093">return Object cast as ClientMessage</text></g><g class="message" data-participant-1="SocketConnection" data-participant-2="ThreadSafeMessageQueueC"><polygon fill="#181818" points="339.8065,917.4243,329.8065,921.4243,339.8065,925.4243,335.8065,921.4243" style="stroke:#181818;stroke-width:1;"/><line style="stroke:#181818;stroke-width:1;" x1="333.8065" x2="487.2796" y1="921.4243" y2="921.4243"/><text fill="#000000" font-family="sans-serif" font-size="13" lengthAdjust="spacing" textLength="135.4731" x="345.8065" y="915.6153">insert(ClientMessage);</text></g><g class="message" data-participant-1="ClientController" data-participant-2="ThreadSafeMessageQueueC"><polygon fill="#181818" points="316.8065,949.1304,326.8065,953.1304,316.8065,957.1304,320.8065,953.1304" style="stroke:#181818;stroke-width:1;"/><line style="stroke:#181818;stroke-width:1;" x1="59.9258" x2="322.8065" y1="953.1304" y2="953.1304"/><text fill="#000000" font-family="sans-serif" font-size="13" lengthAdjust="spacing" textLength="37.544" x="66.9258" y="947.3214">take();</text></g><g class="message" data-participant-1="ThreadSafeMessageQueueC" data-participant-2="ClientController"><polygon fill="#181818" points="70.9258,980.8364,60.9258,984.8364,70.9258,988.8364,66.9258,984.8364" style="stroke:#181818;stroke-width:1;"/><line style="stroke:#181818;stroke-width:1;" x1="64.9258" x2="327.8065" y1="984.8364" y2="984.8364"/><text fill="#000000" font-family="sans-serif" font-size="13" lengthAdjust="spacing" textLength="134.8751" x="76.9258" y="979.0274">return ClientMessage;</text></g><g class="message" data-participant-1="ClientController" data-participant-2="ClientMessage"><polygon fill="#181818" points="186.8329,1012.5424,196.8329,1016.5424,186.8329,1020.5424,190.8329,1016.5424" style="stroke:#181818;stroke-width:1;"/><line style="stroke:#181818;stroke-width:1;" x1="59.9258" x2="192.8329" y1="1016.5424" y2="1016.5424"/><text fill="#000000" font-family="sans-serif" font-size="13" lengthAdjust="spacing" textLength="77.1551" x="66.9258" y="1010.7334">receive(this);</text></g><g class="message" data-participant-1="ClientMessage" data-participant-2="ClientController"><polygon fill="#181818" points="70.9258,1044.2484,60.9258,1048.2484,70.9258,1052.2484,66.9258,1048.2484" style="stroke:#181818;stroke-width:1;"/><line style="stroke:#181818;stroke-width:1;" x1="64.9258" x2="197.8329" y1="1048.2484" y2="1048.2484"/><text fill="#000000" font-family="sans-serif" font-size="13" lengthAdjust="spacing" textLength="114.9071" x="76.9258" y="1042.4394">sendToView(state);</text></g><g class="message" data-participant-1="ClientController" data-participant-2="SocketConnection"><polygon fill="#181818" points="476.2796,1075.9544,486.2796,1079.9544,476.2796,1083.9544,480.2796,1079.9544" style="stroke:#181818;stroke-width:1;"/><line style="stroke:#181818;stroke-width:1;" x1="59.9258" x2="482.2796" y1="1079.9544" y2="1079.9544"/><text fill="#000000" font-family="sans-serif" font-size="13" lengthAdjust="spacing" textLength="321.0483" x="66.9258" y="1074.1454">sendMessage(new UsernameSetupMessage(String));</text></g><g class="message" data-participant-1="SocketConnection" data-participant-2="SocketC"><polygon fill="#181818" points="719.5508,1107.6604,729.5508,1111.6604,719.5508,1115.6604,723.5508,1111.6604" style="stroke:#181818;stroke-width:1;"/><line style="stroke:#181818;stroke-width:1;" x1="488.2796" x2="725.5508" y1="1111.6604" y2="1111.6604"/><text fill="#000000" font-family="sans-serif" font-size="13" lengthAdjust="spacing" textLength="160.6542" x="495.2796" y="1105.8514">out.writeObject(message);</text></g><g class="message" data-participant-1="SocketC" data-participant-2="SocketS"><polygon fill="#181818" points="976.0887,1139.3665,986.0887,1143.3665,976.0887,1147.3665,980.0887,1143.3665" style="stroke:#181818;stroke-width:1;"/><line style="stroke:#181818;stroke-width:1;" x1="731.5508" x2="982.0887" y1="1143.3665" y2="1143.3665"/><text fill="#000000" font-family="sans-serif" font-size="13" lengthAdjust="spacing" textLength="85.8131" x="738.5508" y="1137.5575">(TCP Transfer)</text></g><g class="message" data-participant-1="SocketClient" data-participant-2="SocketS"><polygon fill="#181818" points="999.0887,1171.0725,989.0887,1175.0725,999.0887,1179.0725,995.0887,1175.0725" style="stroke:#181818;stroke-width:1;"/><line style="stroke:#181818;stroke-width:1;" x1="993.0887" x2="1626.343" y1="1175.0725" y2="1175.0725"/><text fill="#000000" font-family="sans-serif" font-size="13" lengthAdjust="spacing" textLength="93.9121" x="1005.0887" y="1169.2635">in.readObject();</text></g><g class="message" data-participant-1="SocketS" data-participant-2="SocketClient"><polygon fill="#181818" points="1615.343,1202.7785,1625.343,1206.7785,1615.343,1210.7785,1619.343,1206.7785" style="stroke:#181818;stroke-width:1;"/><line style="stroke:#181818;stroke-width:1;" x1="988.0887" x2="1621.343" y1="1206.7785" y2="1206.7785"/><text fill="#000000" font-family="sans-serif" font-size="13" lengthAdjust="spacing" textLength="223.4312" x="995.0887" y="1200.9695">return Object cast as ServerMessage</text></g><g class="message" data-participant-1="MainServerController" data-participant-2="ThreadSafeMessageQueueS"><polygon fill="#181818" points="2042.9493,1234.4845,2052.9493,1238.4845,2042.9493,1242.4845,2046.9493,1238.4845" style="stroke:#181818;stroke-width:1;"/><line style="stroke:#181818;stroke-width:1;" x1="1194.509" x2="2048.9493" y1="1238.4845" y2="1238.4845"/><text fill="#000000" font-family="sans-serif" font-size="13" lengthAdjust="spacing" textLength="139.6331" x="1201.509" y="1232.6755">insert(ServerMessage);</text></g><g class="message" data-participant-1="MainServerController" data-participant-2="ThreadSafeMessageQueueS"><polygon fill="#181818" points="2042.9493,1266.1905,2052.9493,1270.1905,2042.9493,1274.1905,2046.9493,1270.1905" style="stroke:#181818;stroke-width:1;"/><line style="stroke:#181818;stroke-width:1;" x1="1194.509" x2="2048.9493" y1="1270.1905" y2="1270.1905"/><text fill="#000000" font-family="sans-serif" font-size="13" lengthAdjust="spacing" textLength="37.544" x="1201.509" y="1264.3815">take();</text></g><g class="message" data-participant-1="ThreadSafeMessageQueueS" data-participant-2="MainServerController"><polygon fill="#181818" points="1205.509,1297.8965,1195.509,1301.8965,1205.509,1305.8965,1201.509,1301.8965" style="stroke:#181818;stroke-width:1;"/><line style="stroke:#181818;stroke-width:1;" x1="1199.509" x2="2053.9493" y1="1301.8965" y2="1301.8965"/><text fill="#000000" font-family="sans-serif" font-size="13" lengthAdjust="spacing" textLength="139.0351" x="1211.509" y="1296.0875">return ServerMessage;</text></g><g class="message" data-participant-1="MainServerController" data-participant-2="ServerMessage"><polygon fill="#181818" points="1908.4957,1329.6026,1918.4957,1333.6026,1908.4957,1337.6026,1912.4957,1333.6026" style="stroke:#181818;stroke-width:1;"/><line style="stroke:#181818;stroke-width:1;" x1="1194.509" x2="1914.4957" y1="1333.6026" y2="1333.6026"/><text fill="#000000" font-family="sans-serif" font-size="13" lengthAdjust="spacing" textLength="54.847" x="1201.509" y="1327.7936">receive();</text></g><g class="message" data-participant-1="MainServerController" data-participant-2="MainServerController"><line style="stroke:#181818;stroke-width:1;" x1="1194.509" x2="1236.509" y1="1383.0146" y2="1383.0146"/><line style="stroke:#181818;stroke-width:1;" x1="1236.509" x2="1236.509" y1="1383.0146" y2="1396.0146"/><line style="stroke:#181818;stroke-width:1;" x1="1195.509" x2="1236.509" y1="1396.0146" y2="1396.0146"/><polygon fill="#181818" points="1205.509,1392.0146,1195.509,1396.0146,1205.509,1400.0146,1201.509,1396.0146" style="stroke:#181818;stroke-width:1;"/><text fill="#000000" font-family="sans-serif" font-size="13" lengthAdjust="spacing" textLength="314.7172" x="1201.509" y="1359.4996">(Generalization, depends on what the user is doing)</text><text fill="#000000" font-family="sans-serif" font-size="13" lengthAdjust="spacing" textLength="303.8232" x="1201.509" y="1377.2056">Generate ClientState and broadcast to every user.</text></g><g class="message" data-participant-1="MainServerController" data-participant-2="MainServerController"><line style="stroke:#181818;stroke-width:1;" x1="1194.509" x2="1236.509" y1="1427.7206" y2="1427.7206"/><line style="stroke:#181818;stroke-width:1;" x1="1236.509" x2="1236.509" y1="1427.7206" y2="1440.7206"/><line style="stroke:#181818;stroke-width:1;" x1="1195.509" x2="1236.509" y1="1440.7206" y2="1440.7206"/><polygon fill="#181818" points="1205.509,1436.7206,1195.509,1440.7206,1205.509,1444.7206,1201.509,1440.7206" style="stroke:#181818;stroke-width:1;"/><text fill="#000000" font-family="sans-serif" font-size="13" lengthAdjust="spacing" textLength="298.8833" x="1201.509" y="1421.9116">sendMessage(new NotifyStateUpdateMessage());</text></g><g class="message" data-participant-1="MainServerController" data-participant-2="ClientDescriptor"><polygon fill="#181818" points="1788.9731,1468.4266,1798.9731,1472.4266,1788.9731,1476.4266,1792.9731,1472.4266" style="stroke:#181818;stroke-width:1;"/><line style="stroke:#181818;stroke-width:1;" x1="1194.509" x2="1794.9731" y1="1472.4266" y2="1472.4266"/><text fill="#000000" font-family="sans-serif" font-size="13" lengthAdjust="spacing" textLength="149.6301" x="1201.509" y="1466.6176">sendMessage(message);</text></g><g class="message" data-participant-1="ClientDescriptor" data-participant-2="SocketClient"><polygon fill="#181818" points="1638.343,1500.1326,1628.343,1504.1326,1638.343,1508.1326,1634.343,1504.1326" style="stroke:#181818;stroke-width:1;"/><line style="stroke:#181818;stroke-width:1;" x1="1632.343" x2="1799.9731" y1="1504.1326" y2="1504.1326"/><text fill="#000000" font-family="sans-serif" font-size="13" lengthAdjust="spacing" textLength="149.6301" x="1644.343" y="1498.3236">sendMessage(message);</text></g><g class="message" data-participant-1="SocketClient" data-participant-2="SocketS"><polygon fill="#181818" points="999.0887,1531.8387,989.0887,1535.8387,999.0887,1539.8387,995.0887,1535.8387" style="stroke:#181818;stroke-width:1;"/><line style="stroke:#181818;stroke-width:1;" x1="993.0887" x2="1626.343" y1="1535.8387" y2="1535.8387"/><text fill="#000000" font-family="sans-serif" font-size="13" lengthAdjust="spacing" textLength="160.6542" x="1005.0887" y="1530.0297">out.writeObject(message);</text></g><g class="message" data-participant-1="SocketS" data-participant-2="SocketC"><polygon fill="#181818" points="742.5508,1563.5447,732.5508,1567.5447,742.5508,1571.5447,738.5508,1567.5447" style="stroke:#181818;stroke-width:1;"/><line style="stroke:#181818;stroke-width:1;" x1="736.5508" x2="987.0887" y1="1567.5447" y2="1567.5447"/><text fill="#000000" font-family="sans-serif" font-size="13" lengthAdjust="spacing" textLength="85.8131" x="748.5508" y="1561.7357">(TCP Transfer)</text></g><g class="message" data-participant-1="SocketConnection" data-participant-2="SocketC"><polygon fill="#181818" points="719.5508,1595.2507,729.5508,1599.2507,719.5508,1603.2507,723.5508,1599.2507" style="stroke:#181818;stroke-width:1;"/><line style="stroke:#181818;stroke-width:1;" x1="488.2796" x2="725.5508" y1="1599.2507" y2="1599.2507"/><text fill="#000000" font-family="sans-serif" font-size="13" lengthAdjust="spacing" textLength="93.9121" x="495.2796" y="1593.4417">in.readObject();</text></g><g class="message" data-participant-1="SocketC" data-participant-2="SocketConnection"><polygon fill="#181818" points="499.2796,1626.9567,489.2796,1630.9567,499.2796,1634.9567,495.2796,1630.9567" style="stroke:#181818;stroke-width:1;"/><line style="stroke:#181818;stroke-width:1;" x1="493.2796" x2="730.5508" y1="1630.9567" y2="1630.9567"/><text fill="#000000" font-family="sans-serif" font-size="13" lengthAdjust="spacing" textLength="219.2712" x="505.2796" y="1625.1477">return Object cast as ClientMessage</text></g><g class="message" data-participant-1="SocketConnection" data-participant-2="ThreadSafeMessageQueueC"><polygon fill="#181818" points="339.8065,1658.6627,329.8065,1662.6627,339.8065,1666.6627,335.8065,1662.6627" style="stroke:#181818;stroke-width:1;"/><line style="stroke:#181818;stroke-width:1;" x1="333.8065" x2="487.2796" y1="1662.6627" y2="1662.6627"/><text fill="#000000" font-family="sans-serif" font-size="13" lengthAdjust="spacing" textLength="135.4731" x="345.8065" y="1656.8537">insert(ClientMessage);</text></g><g class="message" data-participant-1="ClientController" data-participant-2="ThreadSafeMessageQueueC"><polygon fill="#181818" points="316.8065,1690.3687,326.8065,1694.3687,316.8065,1698.3687,320.8065,1694.3687" style="stroke:#181818;stroke-width:1;"/><line style="stroke:#181818;stroke-width:1;" x1="59.9258" x2="322.8065" y1="1694.3687" y2="1694.3687"/><text fill="#000000" font-family="sans-serif" font-size="13" lengthAdjust="spacing" textLength="37.544" x="66.9258" y="1688.5597">take();</text></g><g class="message" data-participant-1="ThreadSafeMessageQueueC" data-participant-2="ClientController"><polygon fill="#181818" points="70.9258,1722.0748,60.9258,1726.0748,70.9258,1730.0748,66.9258,1726.0748" style="stroke:#181818;stroke-width:1;"/><line style="stroke:#181818;stroke-width:1;" x1="64.9258" x2="327.8065" y1="1726.0748" y2="1726.0748"/><text fill="#000000" font-family="sans-serif" font-size="13" lengthAdjust="spacing" textLength="134.8751" x="76.9258" y="1720.2658">return ClientMessage;</text></g><g class="message" data-participant-1="ClientController" data-participant-2="ClientMessage"><polygon fill="#181818" points="186.8329,1753.7808,196.8329,1757.7808,186.8329,1761.7808,190.8329,1757.7808" style="stroke:#181818;stroke-width:1;"/><line style="stroke:#181818;stroke-width:1;" x1="59.9258" x2="192.8329" y1="1757.7808" y2="1757.7808"/><text fill="#000000" font-family="sans-serif" font-size="13" lengthAdjust="spacing" textLength="77.1551" x="66.9258" y="1751.9718">receive(this);</text></g><g class="message" data-participant-1="ClientMessage" data-participant-2="ClientController"><polygon fill="#181818" points="70.9258,1785.4868,60.9258,1789.4868,70.9258,1793.4868,66.9258,1789.4868" style="stroke:#181818;stroke-width:1;"/><line style="stroke:#181818;stroke-width:1;" x1="64.9258" x2="197.8329" y1="1789.4868" y2="1789.4868"/><text fill="#000000" font-family="sans-serif" font-size="13" lengthAdjust="spacing" textLength="114.9071" x="76.9258" y="1783.6778">sendToView(state);</text></g><!--SRC=[xLPDRzim3BtxLmYzn06w_007s2KRXW5BrzNfJWCAnMOQhOwKINIpxDTFakKFMNQQO3lqq4jJq-GZHJu-UJ9P50muHfdWA4L1giT5zLI095G5jaW_CJmw-nAKee_GEZf3zAk44iZLD_CJLwzIbiFqohYkjX9edj8DE7VhjgYXKv4zWKd98KCck0dfswArA7bEPUtTyOcYoIG5-QnhRPnk00z2FbLcu-iPni5ItHjzQfjI4MMzRuLkbVRu-1ko4eKq62o3fejBodY5wtTooEx1etXGWEN-0RDzMy8Nfh3N6TlEpechANg3-G0gasolosjdqzeQF5jEPuYUmHzYzUgb8QQc-wv0XLIY8baxj81WxzwFaI4XsasXB3DTxtmmii-9X70u1DROubsJ52NZZ-qlupYTHm7NMjmkNEn7JIO-eIHam9v1CyHwTqxii0oi5v8GccMmnrYZ-LYXP-TKjWjnzJ0KESInf9w0OH9ma74NR0Ybn-o4g7AzOzYFwxbrMcSzaee0yN-hSt2ncgGcIdSrp_jXBH-1vugKUeivtG6nkqPsDVdrINOKMKQBuZWxasy6qR4sDbEwTzYfWQvVLDIPlaGsKUBi81d2r_LF_JfsXTa3kCRTwKLHXE4iyeIWGKaJpS-PMIU7CNMEQJWRgKkKd5IE9ACAm_tlPncUckrZEuDWSlNAdJb12Jln3EVElgzirRRqhStwtYq_kyi8o_K9s9FyZFlmtHbL9AESbFkS8imkJD5dr8r0jZccgA7kBM3zSdfHKxgmBR62goBSuC6uKVQDSpZaOKBYrUAMh2JbQWDoskxfNQscpSN4SxBLVmhms3-yHxqDc7SbEDpWuJNmlsM6qetUMenh3QWfikor-ioR3-aJcCf77DeHTvdZJk8b7ixhkIJrvHNZbgccqhhrWwaCArRYEuD3h0mpGv6bjQw-LY5r36COqYCDc7cksix_JMx7rddaIwlXceToGXP6SKxpBHrNAtSghu0JAjzrQtdN7KmbcefOMX6sqGCYcLxzHyWlLTBuaxc9QC7-K4EHQvB3td9Jq-MmfKXm2_PZW315Sc6OzODNCJfrVKkO_utyhAMWkHqR2W8wrT76lidxvV8km-LxK_9Ne-H_0G00]--></g></svg>