<svg xmlns="http://www.w3.org/2000/svg" xmlns:xlink="http://www.w3.org/1999/xlink" contentStyleType="text/css" data-diagram-type="SEQUENCE" height="1327px" preserveAspectRatio="none" style="width:1921px;height:1327px;background:#FFFFFF;" version="1.1" viewBox="0 0 1921 1327" width="1921px" zoomAndPan="magnify"><defs/><g><g><title>ClientController</title><rect fill="#000000" fill-opacity="0.00000" height="1216.1226" width="8" x="55.9258" y="56.0679"/><line style="stroke:#181818;stroke-width:0.5;stroke-dasharray:5.0,5.0;" x1="59" x2="59" y1="56.0679" y2="1272.1905"/></g><g><title>ClientMessage</title><rect fill="#000000" fill-opacity="0.00000" height="1216.1226" width="8" x="194.8329" y="56.0679"/><line style="stroke:#181818;stroke-width:0.5;stroke-dasharray:5.0,5.0;" x1="198.8131" x2="198.8131" y1="56.0679" y2="1272.1905"/></g><g><title>Queue(ClientSide)</title><rect fill="#000000" fill-opacity="0.00000" height="1216.1226" width="8" x="324.8065" y="56.0679"/><line style="stroke:#181818;stroke-width:0.5;stroke-dasharray:5.0,5.0;" x1="327.8527" x2="327.8527" y1="56.0679" y2="1272.1905"/></g><g><title>RMIConnection</title><rect fill="#000000" fill-opacity="0.00000" height="1216.1226" width="8" x="457.349" y="56.0679"/><line style="stroke:#181818;stroke-width:0.5;stroke-dasharray:5.0,5.0;" x1="460.7602" x2="460.7602" y1="56.0679" y2="1272.1905"/></g><g><title>RMIClientStub</title><rect fill="#000000" fill-opacity="0.00000" height="1216.1226" width="8" x="615.6912" y="56.0679"/><line style="stroke:#181818;stroke-width:0.5;stroke-dasharray:5.0,5.0;" x1="618.7774" x2="618.7774" y1="56.0679" y2="1272.1905"/></g><g><title>NetworkServer</title><rect fill="#000000" fill-opacity="0.00000" height="1216.1226" width="8" x="825.9654" y="56.0679"/><line style="stroke:#181818;stroke-width:0.5;stroke-dasharray:5.0,5.0;" x1="829.7276" x2="829.7276" y1="56.0679" y2="1272.1905"/></g><g><title>MainServerController</title><rect fill="#000000" fill-opacity="0.00000" height="1216.1226" width="8" x="1045.9666" y="56.0679"/><line style="stroke:#181818;stroke-width:0.5;stroke-dasharray:5.0,5.0;" x1="1049.3929" x2="1049.3929" y1="56.0679" y2="1272.1905"/></g><g><title>RMIServerImpl</title><rect fill="#000000" fill-opacity="0.00000" height="1216.1226" width="8" x="1374.6838" y="56.0679"/><line style="stroke:#181818;stroke-width:0.5;stroke-dasharray:5.0,5.0;" x1="1378.502" x2="1378.502" y1="56.0679" y2="1272.1905"/></g><g><title>ClientDescriptor</title><rect fill="#000000" fill-opacity="0.00000" height="1216.1226" width="8" x="1584.958" y="56.0679"/><line style="stroke:#181818;stroke-width:0.5;stroke-dasharray:5.0,5.0;" x1="1588.6952" x2="1588.6952" y1="56.0679" y2="1272.1905"/></g><g><title>ServerMessage</title><rect fill="#000000" fill-opacity="0.00000" height="1216.1226" width="8" x="1704.4806" y="56.0679"/><line style="stroke:#181818;stroke-width:0.5;stroke-dasharray:5.0,5.0;" x1="1708.2208" x2="1708.2208" y1="56.0679" y2="1272.1905"/></g><g><title>Queue(ServerSide)</title><rect fill="#000000" fill-opacity="0.00000" height="1216.1226" width="8" x="1838.9342" y="56.0679"/><line style="stroke:#181818;stroke-width:0.5;stroke-dasharray:5.0,5.0;" x1="1842.7405" x2="1842.7405" y1="56.0679" y2="1272.1905"/></g><g class="participant participant-head" data-participant="ClientController"><text fill="#000000" font-family="sans-serif" font-size="14" lengthAdjust="spacing" textLength="103.8516" x="5" y="51.9659">ClientController</text><ellipse cx="59.9258" cy="21" fill="#E2E2F0" rx="12" ry="12" style="stroke:#181818;stroke-width:0.5;"/><polygon fill="#181818" points="55.9258,9,61.9258,4,59.9258,9,61.9258,14,55.9258,9" style="stroke:#181818;stroke-width:1;"/></g><g class="participant participant-tail" data-participant="ClientController"><text fill="#000000" font-family="sans-serif" font-size="14" lengthAdjust="spacing" textLength="103.8516" x="5" y="1286.1565">ClientController</text><ellipse cx="59.9258" cy="1306.2584" fill="#E2E2F0" rx="12" ry="12" style="stroke:#181818;stroke-width:0.5;"/><polygon fill="#181818" points="55.9258,1294.2584,61.9258,1289.2584,59.9258,1294.2584,61.9258,1299.2584,55.9258,1294.2584" style="stroke:#181818;stroke-width:1;"/></g><g class="participant participant-head" data-participant="ClientMessage"><text fill="#000000" font-family="sans-serif" font-size="14" lengthAdjust="spacing" textLength="96.0396" x="147.8131" y="51.9659">ClientMessage</text><ellipse cx="198.8329" cy="21" fill="#E2E2F0" rx="12" ry="12" style="stroke:#181818;stroke-width:0.5;"/><line style="stroke:#181818;stroke-width:0.5;" x1="186.8329" x2="210.8329" y1="35" y2="35"/></g><g class="participant participant-tail" data-participant="ClientMessage"><text fill="#000000" font-family="sans-serif" font-size="14" lengthAdjust="spacing" textLength="96.0396" x="147.8131" y="1286.1565">ClientMessage</text><ellipse cx="198.8329" cy="1306.2584" fill="#E2E2F0" rx="12" ry="12" style="stroke:#181818;stroke-width:0.5;"/><line style="stroke:#181818;stroke-width:0.5;" x1="186.8329" x2="210.8329" y1="1320.2584" y2="1320.2584"/></g><g class="participant participant-head" data-participant="ThreadSafeMessageQueueC"><path d="M264.8527,27 L392.7602,27 C397.7602,27 397.7602,41.534 397.7602,41.534 C397.7602,41.534 397.7602,56.0679 392.7602,56.0679 L264.8527,56.0679 C259.8527,56.0679 259.8527,41.534 259.8527,41.534 C259.8527,41.534 259.8527,27 264.8527,27" fill="#E2E2F0" style="stroke:#181818;stroke-width:0.5;"/><path d="M392.7602,27 C387.7602,27 387.7602,41.534 387.7602,41.534 C387.7602,56.0679 392.7602,56.0679 392.7602,56.0679" fill="none" style="stroke:#181818;stroke-width:0.5;"/><text fill="#000000" font-family="sans-serif" font-size="14" lengthAdjust="spacing" textLength="117.9075" x="264.8527" y="46.9659">Queue(ClientSide)</text></g><g class="participant participant-tail" data-participant="ThreadSafeMessageQueueC"><path d="M264.8527,1271.1905 L392.7602,1271.1905 C397.7602,1271.1905 397.7602,1285.7245 397.7602,1285.7245 C397.7602,1285.7245 397.7602,1300.2584 392.7602,1300.2584 L264.8527,1300.2584 C259.8527,1300.2584 259.8527,1285.7245 259.8527,1285.7245 C259.8527,1285.7245 259.8527,1271.1905 264.8527,1271.1905" fill="#E2E2F0" style="stroke:#181818;stroke-width:0.5;"/><path d="M392.7602,1271.1905 C387.7602,1271.1905 387.7602,1285.7245 387.7602,1285.7245 C387.7602,1300.2584 392.7602,1300.2584 392.7602,1300.2584" fill="none" style="stroke:#181818;stroke-width:0.5;"/><text fill="#000000" font-family="sans-serif" font-size="14" lengthAdjust="spacing" textLength="117.9075" x="264.8527" y="1291.1565">Queue(ClientSide)</text></g><g class="participant participant-head" data-participant="RMIConnection"><text fill="#000000" font-family="sans-serif" font-size="14" lengthAdjust="spacing" textLength="101.1776" x="407.7602" y="51.9659">RMIConnection</text><ellipse cx="461.349" cy="21" fill="#E2E2F0" rx="12" ry="12" style="stroke:#181818;stroke-width:0.5;"/><line style="stroke:#181818;stroke-width:0.5;" x1="449.349" x2="473.349" y1="35" y2="35"/></g><g class="participant participant-tail" data-participant="RMIConnection"><text fill="#000000" font-family="sans-serif" font-size="14" lengthAdjust="spacing" textLength="101.1776" x="407.7602" y="1286.1565">RMIConnection</text><ellipse cx="461.349" cy="1306.2584" fill="#E2E2F0" rx="12" ry="12" style="stroke:#181818;stroke-width:0.5;"/><line style="stroke:#181818;stroke-width:0.5;" x1="449.349" x2="473.349" y1="1320.2584" y2="1320.2584"/></g><g class="participant participant-head" data-participant="RMIClientStub"><text fill="#000000" font-family="sans-serif" font-size="14" lengthAdjust="spacing" textLength="93.8276" x="569.7774" y="51.9659">RMIClientStub</text><path d="M599.1912,9 L599.1912,33 M599.1912,21 L616.1912,21" fill="none" style="stroke:#181818;stroke-width:0.5;"/><ellipse cx="628.1912" cy="21" fill="#E2E2F0" rx="12" ry="12" style="stroke:#181818;stroke-width:0.5;"/></g><g class="participant participant-tail" data-participant="RMIClientStub"><text fill="#000000" font-family="sans-serif" font-size="14" lengthAdjust="spacing" textLength="93.8276" x="569.7774" y="1286.1565">RMIClientStub</text><path d="M599.1912,1294.2584 L599.1912,1318.2584 M599.1912,1306.2584 L616.1912,1306.2584" fill="none" style="stroke:#181818;stroke-width:0.5;"/><ellipse cx="628.1912" cy="1306.2584" fill="#E2E2F0" rx="12" ry="12" style="stroke:#181818;stroke-width:0.5;"/></g><g class="participant participant-head" data-participant="NetworkServer"><text fill="#000000" font-family="sans-serif" font-size="14" lengthAdjust="spacing" textLength="98.4756" x="777.7276" y="51.9659">NetworkServer</text><path d="M809.4654,9 L809.4654,33 M809.4654,21 L826.4654,21" fill="none" style="stroke:#181818;stroke-width:0.5;"/><ellipse cx="838.4654" cy="21" fill="#E2E2F0" rx="12" ry="12" style="stroke:#181818;stroke-width:0.5;"/></g><g class="participant participant-tail" data-participant="NetworkServer"><text fill="#000000" font-family="sans-serif" font-size="14" lengthAdjust="spacing" textLength="98.4756" x="777.7276" y="1286.1565">NetworkServer</text><path d="M809.4654,1294.2584 L809.4654,1318.2584 M809.4654,1306.2584 L826.4654,1306.2584" fill="none" style="stroke:#181818;stroke-width:0.5;"/><ellipse cx="838.4654" cy="1306.2584" fill="#E2E2F0" rx="12" ry="12" style="stroke:#181818;stroke-width:0.5;"/></g><g class="participant participant-head" data-participant="MainServerController"><text fill="#000000" font-family="sans-serif" font-size="14" lengthAdjust="spacing" textLength="141.1475" x="976.3929" y="51.9659">MainServerController</text><ellipse cx="1049.9666" cy="21" fill="#E2E2F0" rx="12" ry="12" style="stroke:#181818;stroke-width:0.5;"/><polygon fill="#181818" points="1045.9666,9,1051.9666,4,1049.9666,9,1051.9666,14,1045.9666,9" style="stroke:#181818;stroke-width:1;"/></g><g class="participant participant-tail" data-participant="MainServerController"><text fill="#000000" font-family="sans-serif" font-size="14" lengthAdjust="spacing" textLength="141.1475" x="976.3929" y="1286.1565">MainServerController</text><ellipse cx="1049.9666" cy="1306.2584" fill="#E2E2F0" rx="12" ry="12" style="stroke:#181818;stroke-width:0.5;"/><polygon fill="#181818" points="1045.9666,1294.2584,1051.9666,1289.2584,1049.9666,1294.2584,1051.9666,1299.2584,1045.9666,1294.2584" style="stroke:#181818;stroke-width:1;"/></g><g class="participant participant-head" data-participant="RMIServerImpl"><text fill="#000000" font-family="sans-serif" font-size="14" lengthAdjust="spacing" textLength="98.3636" x="1326.502" y="51.9659">RMIServerImpl</text><ellipse cx="1378.6838" cy="21" fill="#E2E2F0" rx="12" ry="12" style="stroke:#181818;stroke-width:0.5;"/><line style="stroke:#181818;stroke-width:0.5;" x1="1366.6838" x2="1390.6838" y1="35" y2="35"/></g><g class="participant participant-tail" data-participant="RMIServerImpl"><text fill="#000000" font-family="sans-serif" font-size="14" lengthAdjust="spacing" textLength="98.3636" x="1326.502" y="1286.1565">RMIServerImpl</text><ellipse cx="1378.6838" cy="1306.2584" fill="#E2E2F0" rx="12" ry="12" style="stroke:#181818;stroke-width:0.5;"/><line style="stroke:#181818;stroke-width:0.5;" x1="1366.6838" x2="1390.6838" y1="1320.2584" y2="1320.2584"/></g><g class="participant participant-head" data-participant="ClientDescriptor"><text fill="#000000" font-family="sans-serif" font-size="14" lengthAdjust="spacing" textLength="106.5256" x="1532.6952" y="51.9659">ClientDescriptor</text><ellipse cx="1588.958" cy="21" fill="#E2E2F0" rx="12" ry="12" style="stroke:#181818;stroke-width:0.5;"/><line style="stroke:#181818;stroke-width:0.5;" x1="1576.958" x2="1600.958" y1="35" y2="35"/></g><g class="participant participant-tail" data-participant="ClientDescriptor"><text fill="#000000" font-family="sans-serif" font-size="14" lengthAdjust="spacing" textLength="106.5256" x="1532.6952" y="1286.1565">ClientDescriptor</text><ellipse cx="1588.958" cy="1306.2584" fill="#E2E2F0" rx="12" ry="12" style="stroke:#181818;stroke-width:0.5;"/><line style="stroke:#181818;stroke-width:0.5;" x1="1576.958" x2="1600.958" y1="1320.2584" y2="1320.2584"/></g><g class="participant participant-head" data-participant="ServerMessage"><text fill="#000000" font-family="sans-serif" font-size="14" lengthAdjust="spacing" textLength="100.5196" x="1655.2208" y="51.9659">ServerMessage</text><ellipse cx="1708.4806" cy="21" fill="#E2E2F0" rx="12" ry="12" style="stroke:#181818;stroke-width:0.5;"/><line style="stroke:#181818;stroke-width:0.5;" x1="1696.4806" x2="1720.4806" y1="35" y2="35"/></g><g class="participant participant-tail" data-participant="ServerMessage"><text fill="#000000" font-family="sans-serif" font-size="14" lengthAdjust="spacing" textLength="100.5196" x="1655.2208" y="1286.1565">ServerMessage</text><ellipse cx="1708.4806" cy="1306.2584" fill="#E2E2F0" rx="12" ry="12" style="stroke:#181818;stroke-width:0.5;"/><line style="stroke:#181818;stroke-width:0.5;" x1="1696.4806" x2="1720.4806" y1="1320.2584" y2="1320.2584"/></g><g class="participant participant-head" data-participant="ThreadSafeMessageQueueS"><path d="M1776.7405,27 L1909.128,27 C1914.128,27 1914.128,41.534 1914.128,41.534 C1914.128,41.534 1914.128,56.0679 1909.128,56.0679 L1776.7405,56.0679 C1771.7405,56.0679 1771.7405,41.534 1771.7405,41.534 C1771.7405,41.534 1771.7405,27 1776.7405,27" fill="#E2E2F0" style="stroke:#181818;stroke-width:0.5;"/><path d="M1909.128,27 C1904.128,27 1904.128,41.534 1904.128,41.534 C1904.128,56.0679 1909.128,56.0679 1909.128,56.0679" fill="none" style="stroke:#181818;stroke-width:0.5;"/><text fill="#000000" font-family="sans-serif" font-size="14" lengthAdjust="spacing" textLength="122.3875" x="1776.7405" y="46.9659">Queue(ServerSide)</text></g><g class="participant participant-tail" data-participant="ThreadSafeMessageQueueS"><path d="M1776.7405,1271.1905 L1909.128,1271.1905 C1914.128,1271.1905 1914.128,1285.7245 1914.128,1285.7245 C1914.128,1285.7245 1914.128,1300.2584 1909.128,1300.2584 L1776.7405,1300.2584 C1771.7405,1300.2584 1771.7405,1285.7245 1771.7405,1285.7245 C1771.7405,1285.7245 1771.7405,1271.1905 1776.7405,1271.1905" fill="#E2E2F0" style="stroke:#181818;stroke-width:0.5;"/><path d="M1909.128,1271.1905 C1904.128,1271.1905 1904.128,1285.7245 1904.128,1285.7245 C1904.128,1300.2584 1909.128,1300.2584 1909.128,1300.2584" fill="none" style="stroke:#181818;stroke-width:0.5;"/><text fill="#000000" font-family="sans-serif" font-size="14" lengthAdjust="spacing" textLength="122.3875" x="1776.7405" y="1291.1565">Queue(ServerSide)</text></g><g class="message" data-participant-1="ClientController" data-participant-2="ThreadSafeMessageQueueC"><polygon fill="#181818" points="316.8065,85.7739,326.8065,89.7739,316.8065,93.7739,320.8065,89.7739" style="stroke:#181818;stroke-width:1;"/><line style="stroke:#181818;stroke-width:1;" x1="59.9258" x2="322.8065" y1="89.7739" y2="89.7739"/><text fill="#000000" font-family="sans-serif" font-size="13" lengthAdjust="spacing" textLength="76.0891" x="66.9258" y="83.9649">Constructor;</text></g><g class="message" data-participant-1="ClientController" data-participant-2="RMIConnection"><polygon fill="#181818" points="449.349,117.4799,459.349,121.4799,449.349,125.4799,453.349,121.4799" style="stroke:#181818;stroke-width:1;"/><line style="stroke:#181818;stroke-width:1;" x1="59.9258" x2="455.349" y1="121.4799" y2="121.4799"/><text fill="#000000" font-family="sans-serif" font-size="13" lengthAdjust="spacing" textLength="144.6512" x="66.9258" y="115.6709">new RMIConnection(...);</text></g><g class="message" data-participant-1="RMIConnection" data-participant-2="RMIClientStub"><polygon fill="#181818" points="607.6912,149.186,617.6912,153.186,607.6912,157.186,611.6912,153.186" style="stroke:#181818;stroke-width:1;"/><line style="stroke:#181818;stroke-width:1;" x1="461.349" x2="613.6912" y1="153.186" y2="153.186"/><text fill="#000000" font-family="sans-serif" font-size="13" lengthAdjust="spacing" textLength="134.3422" x="468.349" y="147.377">new RMIClientStub(...)</text></g><g class="message" data-participant-1="RMIClientStub" data-participant-2="RMIClientStub"><line style="stroke:#181818;stroke-width:1;" x1="619.6912" x2="661.6912" y1="202.598" y2="202.598"/><line style="stroke:#181818;stroke-width:1;" x1="661.6912" x2="661.6912" y1="202.598" y2="215.598"/><line style="stroke:#181818;stroke-width:1;" x1="620.6912" x2="661.6912" y1="215.598" y2="215.598"/><polygon fill="#181818" points="630.6912,211.598,620.6912,215.598,630.6912,219.598,626.6912,215.598" style="stroke:#181818;stroke-width:1;"/><text fill="#000000" font-family="sans-serif" font-size="13" lengthAdjust="spacing" textLength="143.8582" x="626.6912" y="179.083">UnicastRemoteObject();</text><text fill="#000000" font-family="sans-serif" font-size="13" lengthAdjust="spacing" textLength="196.2742" x="626.6912" y="196.789">(Called Implicitly by constructor)</text></g><g class="message" data-participant-1="RMIConnection" data-participant-2="NetworkServer"><polygon fill="#181818" points="817.9654,243.304,827.9654,247.304,817.9654,251.304,821.9654,247.304" style="stroke:#181818;stroke-width:1;"/><line style="stroke:#181818;stroke-width:1;" x1="461.349" x2="823.9654" y1="247.304" y2="247.304"/><text fill="#000000" font-family="sans-serif" font-size="13" lengthAdjust="spacing" textLength="296.0233" x="468.349" y="241.495">(As RMISkeletonProvider) accept(RMIClientStub);</text></g><g class="message" data-participant-1="NetworkServer" data-participant-2="MainServerController"><polygon fill="#181818" points="1037.9666,275.01,1047.9666,279.01,1037.9666,283.01,1041.9666,279.01" style="stroke:#181818;stroke-width:1;"/><line style="stroke:#181818;stroke-width:1;" x1="829.9654" x2="1043.9666" y1="279.01" y2="279.01"/><text fill="#000000" font-family="sans-serif" font-size="13" lengthAdjust="spacing" textLength="196.0012" x="836.9654" y="273.201">connectListener(RMIClientStub);</text></g><g class="message" data-participant-1="MainServerController" data-participant-2="ClientDescriptor"><polygon fill="#181818" points="1576.958,306.716,1586.958,310.716,1576.958,314.716,1580.958,310.716" style="stroke:#181818;stroke-width:1;"/><line style="stroke:#181818;stroke-width:1;" x1="1049.9666" x2="1582.958" y1="310.716" y2="310.716"/><text fill="#000000" font-family="sans-serif" font-size="13" lengthAdjust="spacing" textLength="269.7373" x="1056.9666" y="304.907">new ClientDescriptor(String, RMIClientStub);</text></g><g class="message" data-participant-1="MainServerController" data-participant-2="MainServerController"><line style="stroke:#181818;stroke-width:1;" x1="1049.9666" x2="1091.9666" y1="342.4221" y2="342.4221"/><line style="stroke:#181818;stroke-width:1;" x1="1091.9666" x2="1091.9666" y1="342.4221" y2="355.4221"/><line style="stroke:#181818;stroke-width:1;" x1="1050.9666" x2="1091.9666" y1="355.4221" y2="355.4221"/><polygon fill="#181818" points="1060.9666,351.4221,1050.9666,355.4221,1060.9666,359.4221,1056.9666,355.4221" style="stroke:#181818;stroke-width:1;"/><text fill="#000000" font-family="sans-serif" font-size="13" lengthAdjust="spacing" textLength="158.6392" x="1056.9666" y="336.6131">connect(ClientDescriptor);</text></g><g class="message" data-participant-1="MainServerController" data-participant-2="NetworkServer"><polygon fill="#181818" points="840.9654,383.1281,830.9654,387.1281,840.9654,391.1281,836.9654,387.1281" style="stroke:#181818;stroke-width:1;"/><line style="stroke:#181818;stroke-width:1;" x1="834.9654" x2="1048.9666" y1="387.1281" y2="387.1281"/><text fill="#000000" font-family="sans-serif" font-size="13" lengthAdjust="spacing" textLength="144.6121" x="846.9654" y="381.3191">return ClientDescriptor;</text></g><g class="message" data-participant-1="NetworkServer" data-participant-2="MainServerController"><polygon fill="#181818" points="1037.9666,414.8341,1047.9666,418.8341,1037.9666,422.8341,1041.9666,418.8341" style="stroke:#181818;stroke-width:1;"/><line style="stroke:#181818;stroke-width:1;" x1="829.9654" x2="1043.9666" y1="418.8341" y2="418.8341"/><text fill="#000000" font-family="sans-serif" font-size="13" lengthAdjust="spacing" textLength="158.0802" x="836.9654" y="413.0251">getStub(ClientDescriptor);</text></g><g class="message" data-participant-1="MainServerController" data-participant-2="RMIServerImpl"><polygon fill="#181818" points="1366.6838,446.5401,1376.6838,450.5401,1366.6838,454.5401,1370.6838,450.5401" style="stroke:#181818;stroke-width:1;"/><line style="stroke:#181818;stroke-width:1;" x1="1049.9666" x2="1372.6838" y1="450.5401" y2="450.5401"/><text fill="#000000" font-family="sans-serif" font-size="13" lengthAdjust="spacing" textLength="142.0381" x="1056.9666" y="444.7311">new RMIServerImpl(...);</text></g><g class="message" data-participant-1="RMIServerImpl" data-participant-2="RMIServerImpl"><line style="stroke:#181818;stroke-width:1;" x1="1378.6838" x2="1420.6838" y1="499.9521" y2="499.9521"/><line style="stroke:#181818;stroke-width:1;" x1="1420.6838" x2="1420.6838" y1="499.9521" y2="512.9521"/><line style="stroke:#181818;stroke-width:1;" x1="1379.6838" x2="1420.6838" y1="512.9521" y2="512.9521"/><polygon fill="#181818" points="1389.6838,508.9521,1379.6838,512.9521,1389.6838,516.9521,1385.6838,512.9521" style="stroke:#181818;stroke-width:1;"/><text fill="#000000" font-family="sans-serif" font-size="13" lengthAdjust="spacing" textLength="143.8582" x="1385.6838" y="476.4371">UnicastRemoteObject();</text><text fill="#000000" font-family="sans-serif" font-size="13" lengthAdjust="spacing" textLength="196.2742" x="1385.6838" y="494.1431">(Called Implicitly by constructor)</text></g><g class="message" data-participant-1="MainServerController" data-participant-2="NetworkServer"><polygon fill="#181818" points="840.9654,540.6582,830.9654,544.6582,840.9654,548.6582,836.9654,544.6582" style="stroke:#181818;stroke-width:1;"/><line style="stroke:#181818;stroke-width:1;" x1="834.9654" x2="1048.9666" y1="544.6582" y2="544.6582"/><text fill="#000000" font-family="sans-serif" font-size="13" lengthAdjust="spacing" textLength="137.0331" x="846.9654" y="538.8492">return RMIServerImpl;</text></g><g class="message" data-participant-1="NetworkServer" data-participant-2="RMIConnection"><polygon fill="#181818" points="472.349,572.3642,462.349,576.3642,472.349,580.3642,468.349,576.3642" style="stroke:#181818;stroke-width:1;"/><line style="stroke:#181818;stroke-width:1;" x1="466.349" x2="828.9654" y1="576.3642" y2="576.3642"/><text fill="#000000" font-family="sans-serif" font-size="13" lengthAdjust="spacing" textLength="208.5852" x="478.349" y="570.5552">return ServerImpl as VirtualServer</text></g><g class="message" data-participant-1="MainServerController" data-participant-2="RMIClientStub"><polygon fill="#181818" points="630.6912,604.0702,620.6912,608.0702,630.6912,612.0702,626.6912,608.0702" style="stroke:#181818;stroke-width:1;"/><line style="stroke:#181818;stroke-width:1;" x1="624.6912" x2="1048.9666" y1="608.0702" y2="608.0702"/><text fill="#000000" font-family="sans-serif" font-size="13" lengthAdjust="spacing" textLength="309.3353" x="636.6912" y="602.2612">sendMessage(new NotifyUpdateStateMessage(...));</text></g><g class="message" data-participant-1="RMIClientStub" data-participant-2="ThreadSafeMessageQueueC"><polygon fill="#181818" points="339.8065,635.7762,329.8065,639.7762,339.8065,643.7762,335.8065,639.7762" style="stroke:#181818;stroke-width:1;"/><line style="stroke:#181818;stroke-width:1;" x1="333.8065" x2="618.6912" y1="639.7762" y2="639.7762"/><text fill="#000000" font-family="sans-serif" font-size="13" lengthAdjust="spacing" textLength="135.4731" x="345.8065" y="633.9672">insert(ClientMessage);</text></g><g class="message" data-participant-1="ClientController" data-participant-2="ThreadSafeMessageQueueC"><polygon fill="#181818" points="316.8065,667.4822,326.8065,671.4822,316.8065,675.4822,320.8065,671.4822" style="stroke:#181818;stroke-width:1;"/><line style="stroke:#181818;stroke-width:1;" x1="59.9258" x2="322.8065" y1="671.4822" y2="671.4822"/><text fill="#000000" font-family="sans-serif" font-size="13" lengthAdjust="spacing" textLength="37.544" x="66.9258" y="665.6732">take();</text></g><g class="message" data-participant-1="ThreadSafeMessageQueueC" data-participant-2="ClientController"><polygon fill="#181818" points="70.9258,699.1882,60.9258,703.1882,70.9258,707.1882,66.9258,703.1882" style="stroke:#181818;stroke-width:1;"/><line style="stroke:#181818;stroke-width:1;" x1="64.9258" x2="327.8065" y1="703.1882" y2="703.1882"/><text fill="#000000" font-family="sans-serif" font-size="13" lengthAdjust="spacing" textLength="134.8751" x="76.9258" y="697.3792">return ClientMessage;</text></g><g class="message" data-participant-1="ClientController" data-participant-2="ClientMessage"><polygon fill="#181818" points="186.8329,730.8943,196.8329,734.8943,186.8329,738.8943,190.8329,734.8943" style="stroke:#181818;stroke-width:1;"/><line style="stroke:#181818;stroke-width:1;" x1="59.9258" x2="192.8329" y1="734.8943" y2="734.8943"/><text fill="#000000" font-family="sans-serif" font-size="13" lengthAdjust="spacing" textLength="77.1551" x="66.9258" y="729.0853">receive(this);</text></g><g class="message" data-participant-1="ClientMessage" data-participant-2="ClientController"><polygon fill="#181818" points="70.9258,762.6003,60.9258,766.6003,70.9258,770.6003,66.9258,766.6003" style="stroke:#181818;stroke-width:1;"/><line style="stroke:#181818;stroke-width:1;" x1="64.9258" x2="197.8329" y1="766.6003" y2="766.6003"/><text fill="#000000" font-family="sans-serif" font-size="13" lengthAdjust="spacing" textLength="114.9071" x="76.9258" y="760.7913">sendToView(state);</text></g><g class="message" data-participant-1="ClientController" data-participant-2="RMIConnection"><polygon fill="#181818" points="449.349,794.3063,459.349,798.3063,449.349,802.3063,453.349,798.3063" style="stroke:#181818;stroke-width:1;"/><line style="stroke:#181818;stroke-width:1;" x1="59.9258" x2="455.349" y1="798.3063" y2="798.3063"/><text fill="#000000" font-family="sans-serif" font-size="13" lengthAdjust="spacing" textLength="188.4091" x="66.9258" y="792.4973">sendMessage(ServerMessage);</text></g><g class="message" data-participant-1="RMIConnection" data-participant-2="MainServerController"><polygon fill="#181818" points="1037.9666,826.0123,1047.9666,830.0123,1037.9666,834.0123,1041.9666,830.0123" style="stroke:#181818;stroke-width:1;"/><line style="stroke:#181818;stroke-width:1;" x1="461.349" x2="1043.9666" y1="830.0123" y2="830.0123"/><text fill="#000000" font-family="sans-serif" font-size="13" lengthAdjust="spacing" textLength="202.3841" x="468.349" y="824.2033">receiveMessage(ServerMessage);</text></g><g class="message" data-participant-1="MainServerController" data-participant-2="ThreadSafeMessageQueueS"><polygon fill="#181818" points="1830.9342,857.7183,1840.9342,861.7183,1830.9342,865.7183,1834.9342,861.7183" style="stroke:#181818;stroke-width:1;"/><line style="stroke:#181818;stroke-width:1;" x1="1049.9666" x2="1836.9342" y1="861.7183" y2="861.7183"/><text fill="#000000" font-family="sans-serif" font-size="13" lengthAdjust="spacing" textLength="139.6331" x="1056.9666" y="855.9093">insert(ServerMessage);</text></g><g class="message" data-participant-1="MainServerController" data-participant-2="MainServerController"><line style="stroke:#181818;stroke-width:1;" x1="1049.9666" x2="1091.9666" y1="893.4243" y2="893.4243"/><line style="stroke:#181818;stroke-width:1;" x1="1091.9666" x2="1091.9666" y1="893.4243" y2="906.4243"/><line style="stroke:#181818;stroke-width:1;" x1="1050.9666" x2="1091.9666" y1="906.4243" y2="906.4243"/><polygon fill="#181818" points="1060.9666,902.4243,1050.9666,906.4243,1060.9666,910.4243,1056.9666,906.4243" style="stroke:#181818;stroke-width:1;"/><text fill="#000000" font-family="sans-serif" font-size="13" lengthAdjust="spacing" textLength="32.7211" x="1056.9666" y="887.6153">run();</text></g><g class="message" data-participant-1="MainServerController" data-participant-2="ThreadSafeMessageQueueS"><polygon fill="#181818" points="1830.9342,934.1304,1840.9342,938.1304,1830.9342,942.1304,1834.9342,938.1304" style="stroke:#181818;stroke-width:1;"/><line style="stroke:#181818;stroke-width:1;" x1="1049.9666" x2="1836.9342" y1="938.1304" y2="938.1304"/><text fill="#000000" font-family="sans-serif" font-size="13" lengthAdjust="spacing" textLength="37.544" x="1056.9666" y="932.3214">take();</text></g><g class="message" data-participant-1="ThreadSafeMessageQueueS" data-participant-2="MainServerController"><polygon fill="#181818" points="1060.9666,965.8364,1050.9666,969.8364,1060.9666,973.8364,1056.9666,969.8364" style="stroke:#181818;stroke-width:1;"/><line style="stroke:#181818;stroke-width:1;" x1="1054.9666" x2="1841.9342" y1="969.8364" y2="969.8364"/><text fill="#000000" font-family="sans-serif" font-size="13" lengthAdjust="spacing" textLength="139.0351" x="1066.9666" y="964.0274">return ServerMessage;</text></g><g class="message" data-participant-1="MainServerController" data-participant-2="ServerMessage"><polygon fill="#181818" points="1696.4806,997.5424,1706.4806,1001.5424,1696.4806,1005.5424,1700.4806,1001.5424" style="stroke:#181818;stroke-width:1;"/><line style="stroke:#181818;stroke-width:1;" x1="1049.9666" x2="1702.4806" y1="1001.5424" y2="1001.5424"/><text fill="#000000" font-family="sans-serif" font-size="13" lengthAdjust="spacing" textLength="54.847" x="1056.9666" y="995.7334">receive();</text></g><g class="message" data-participant-1="MainServerController" data-participant-2="MainServerController"><line style="stroke:#181818;stroke-width:1;" x1="1049.9666" x2="1091.9666" y1="1050.9544" y2="1050.9544"/><line style="stroke:#181818;stroke-width:1;" x1="1091.9666" x2="1091.9666" y1="1050.9544" y2="1063.9544"/><line style="stroke:#181818;stroke-width:1;" x1="1050.9666" x2="1091.9666" y1="1063.9544" y2="1063.9544"/><polygon fill="#181818" points="1060.9666,1059.9544,1050.9666,1063.9544,1060.9666,1067.9544,1056.9666,1063.9544" style="stroke:#181818;stroke-width:1;"/><text fill="#000000" font-family="sans-serif" font-size="13" lengthAdjust="spacing" textLength="314.7172" x="1056.9666" y="1027.4394">(Generalization, depends on what the user is doing)</text><text fill="#000000" font-family="sans-serif" font-size="13" lengthAdjust="spacing" textLength="303.8232" x="1056.9666" y="1045.1454">Generate ClientState and broadcast to every user.</text></g><g class="message" data-participant-1="MainServerController" data-participant-2="RMIClientStub"><polygon fill="#181818" points="630.6912,1091.6604,620.6912,1095.6604,630.6912,1099.6604,626.6912,1095.6604" style="stroke:#181818;stroke-width:1;"/><line style="stroke:#181818;stroke-width:1;" x1="624.6912" x2="1048.9666" y1="1095.6604" y2="1095.6604"/><text fill="#000000" font-family="sans-serif" font-size="13" lengthAdjust="spacing" textLength="309.3353" x="636.6912" y="1089.8514">sendMessage(new NotifyUpdateStateMessage(...));</text></g><g class="message" data-participant-1="RMIClientStub" data-participant-2="ThreadSafeMessageQueueC"><polygon fill="#181818" points="339.8065,1123.3665,329.8065,1127.3665,339.8065,1131.3665,335.8065,1127.3665" style="stroke:#181818;stroke-width:1;"/><line style="stroke:#181818;stroke-width:1;" x1="333.8065" x2="618.6912" y1="1127.3665" y2="1127.3665"/><text fill="#000000" font-family="sans-serif" font-size="13" lengthAdjust="spacing" textLength="135.4731" x="345.8065" y="1121.5575">insert(ClientMessage);</text></g><g class="message" data-participant-1="ClientController" data-participant-2="ThreadSafeMessageQueueC"><polygon fill="#181818" points="316.8065,1155.0725,326.8065,1159.0725,316.8065,1163.0725,320.8065,1159.0725" style="stroke:#181818;stroke-width:1;"/><line style="stroke:#181818;stroke-width:1;" x1="59.9258" x2="322.8065" y1="1159.0725" y2="1159.0725"/><text fill="#000000" font-family="sans-serif" font-size="13" lengthAdjust="spacing" textLength="37.544" x="66.9258" y="1153.2635">take();</text></g><g class="message" data-participant-1="ThreadSafeMessageQueueC" data-participant-2="ClientController"><polygon fill="#181818" points="70.9258,1186.7785,60.9258,1190.7785,70.9258,1194.7785,66.9258,1190.7785" style="stroke:#181818;stroke-width:1;"/><line style="stroke:#181818;stroke-width:1;" x1="64.9258" x2="327.8065" y1="1190.7785" y2="1190.7785"/><text fill="#000000" font-family="sans-serif" font-size="13" lengthAdjust="spacing" textLength="134.8751" x="76.9258" y="1184.9695">return ClientMessage;</text></g><g class="message" data-participant-1="ClientController" data-participant-2="ClientMessage"><polygon fill="#181818" points="186.8329,1218.4845,196.8329,1222.4845,186.8329,1226.4845,190.8329,1222.4845" style="stroke:#181818;stroke-width:1;"/><line style="stroke:#181818;stroke-width:1;" x1="59.9258" x2="192.8329" y1="1222.4845" y2="1222.4845"/><text fill="#000000" font-family="sans-serif" font-size="13" lengthAdjust="spacing" textLength="77.1551" x="66.9258" y="1216.6755">receive(this);</text></g><g class="message" data-participant-1="ClientMessage" data-participant-2="ClientController"><polygon fill="#181818" points="70.9258,1250.1905,60.9258,1254.1905,70.9258,1258.1905,66.9258,1254.1905" style="stroke:#181818;stroke-width:1;"/><line style="stroke:#181818;stroke-width:1;" x1="64.9258" x2="197.8329" y1="1254.1905" y2="1254.1905"/><text fill="#000000" font-family="sans-serif" font-size="13" lengthAdjust="spacing" textLength="114.9071" x="76.9258" y="1248.3815">sendToView(state);</text></g><!--SRC=[xLR9Rjim4BthAuXSJ06fFi062XGkK0I8qpPASig5biOsQuLqoL4Cz-jBYjH2I_BIehUUR0rdqtipZvfCvWK7WL4c1IfP4FSuTqy5AC9qpnQP9uu7Rr-0rcmDhQCtH3zBA87SVBS_r1sbF8Vunhe-RHImF6KhyEwLsxnE_RYuC_K4PCYbiFw18LhAKkHCEJ-N6SjbxTSOeiaa1VLkEcu27W3tKcsTsGO4XWQ61UF2cK8eXkoTdjtHtTkkyBsqXX2qpw0pnNSeEm2tjjhNHNS03WmXmExe7C1fP31nvOX6fb0Jb2Hpo4OzyZzy72DgIeoRHbLcfj_PO6H0sPG8s8SccYH9F8j2gdrSGs4RrvYgk2XalX_sB7Z6D3x2cqJuklnXyjDuzYhed9a6Ss8vuHd7ua2M1uj0_J9nlwDWHgQ4VdBSRg40bEARaky6TXKJbcMmGnfqOjwmda9_RY3VG8svgP14uL2QWaDZDgr3xhb64A1wTGQ7rcGx7Y-7wR6LfgYuMD-IIzEUR98Ufp-Hw0XU1LWgqUjlTYbCQt1ZSaK7mQOs8zUQsb7jR7W_xYzcxZfiWhe3m1ojdeyArUc5AonPuOMlcT4KH6uKgLJAQiIzN9fEKsG8fy3hBfus2RnKK0laWqI-EZplSfEZIbGVMapz_WUBFAeuN6XGzMJvitXsdMeXsuBX91fnQDUbEr71H7h_uRg1YmtCWBy3nGtNJQUrdW-MikWzoHSEUwejM5u-B2Urx9_LMXAI45mQGu8xl4Q-zx4iOzCmSkyqx5sQPwIfKj0_ANwQzlGK2ftLQQWVgn-ujVHtxu2oMWHDAdO9Nn6E9DimiOOykH8C-iLU0wpWlvYbyfRaiAicnT2wtp2ixfdIe4wu9haquXw_2XTZIjTBP_ypaPEbaYotycM_2C2KEbInoR_Q- -OxnAEa3HB_nU2S6Fm6]--></g></svg>